<svg xmlns="http://www.w3.org/2000/svg" xmlns:xlink="http://www.w3.org/1999/xlink" width="806" height="903" viewBox="0 0 806 903"><defs><style>.a,.g{fill:#fff;}.b{opacity:0.03;}.c{clip-path:url(#a);}.d{fill:#1789fc;}.e{fill:#e5f3ff;}.f{fill:#85c6fd;}.g,.r{font-size:18px;}.g,.h,.j{font-family:Manrope-Medium, Manrope;font-weight:500;}.h,.i{fill:#064480;}.h,.j{font-size:48px;}.j{fill:#bfe2ff;}.k{fill:#113152;}.l{fill:#e3fde3;}.m{fill:#1a7b1a;}.n{fill:#e4e4e4;}.o{fill:#2c892c;}.p{fill:#f3f4f5;}.q,.r{fill:#02294d;font-family:Manrope-SemiBold, Manrope;font-weight:600;letter-spacing:0.01em;}.q{font-size:36px;}.s{filter:url(#d);}.t{filter:url(#b);}</style><clipPath id="a"><rect class="a" width="622" height="502.587"/></clipPath><filter id="b" x="442" y="0" width="364" height="364" filterUnits="userSpaceOnUse"><feOffset dy="3" input="SourceAlpha"/><feGaussianBlur stdDeviation="24" result="c"/><feFlood flood-color="#8190af" flood-opacity="0.251"/><feComposite operator="in" in2="c"/><feComposite in="SourceGraphic"/></filter><filter id="d" x="0" y="539" width="364" height="364" filterUnits="userSpaceOnUse"><feOffset dy="3" input="SourceAlpha"/><feGaussianBlur stdDeviation="24" result="e"/><feFlood flood-color="#8190af" flood-opacity="0.251"/><feComposite operator="in" in2="e"/><feComposite in="SourceGraphic"/></filter></defs><g transform="translate(-168 -3026)"><g class="b" transform="translate(133.78 3176.785)"><rect class="a" width="622" height="502.587" transform="translate(146.22 9.43)"/><g class="c" transform="translate(146.22 9.43)"><path class="d" d="M427.21,303.41l16.716-13.35,5.27,4.258-16.522,13.507Z" transform="translate(179.65 199.665)"/><path class="d" d="M414.25,312.957,459.043,277.2l5.1,4.118-44.253,36.193Z" transform="translate(164.62 190.083)"/><path class="d" d="M401.3,322.469l72.847-58.129,4.924,3.979-71.94,58.862Z" transform="translate(149.602 180.502)"/><path class="d" d="M388.37,332,489.229,251.48l4.751,3.839-99.65,81.5Z" transform="translate(134.607 170.92)"/><path class="d" d="M375.42,341.511,504.334,238.62l4.579,3.7L381.575,346.484Z" transform="translate(119.588 161.338)"/><path class="d" d="M362.48,351.023,519.427,225.76l4.406,3.56L368.808,356.136Z" transform="translate(104.582 151.756)"/><path class="d" d="M349.54,360.535,534.52,212.9l4.233,3.42L356.062,365.788Z" transform="translate(89.575 142.174)"/><path class="d" d="M336.6,370.047,549.635,200.04l4.039,3.281-210.4,172.118Z" transform="translate(74.568 132.592)"/><path class="d" d="M323.66,379.559,564.707,187.18l3.888,3.141L330.506,385.091Z" transform="translate(59.561 123.01)"/><path class="d" d="M310.72,389.071,579.8,174.32l3.715,3L317.739,394.743Z" transform="translate(44.554 113.428)"/><path class="d" d="M297.78,398.583,594.893,161.46l3.542,2.862L304.993,404.412Z" transform="translate(29.548 103.846)"/><path class="d" d="M284.83,408.1,610,148.6l3.369,2.722L292.238,414.063Z" transform="translate(14.529 94.265)"/><path class="d" d="M271.89,417.59l353.2-281.85,3.2,2.583L279.471,423.715Z" transform="translate(-0.478 84.683)"/><path class="d" d="M258.96,427.112,640.194,122.89l2.98,2.408L266.67,433.342Z" transform="translate(-15.473 75.108)"/><path class="d" d="M246.02,436.632,655.266,110.02l2.851,2.3-404.192,330.7Z" transform="translate(-30.48 65.519)"/><path class="d" d="M233.07,446.136,670.392,97.17l2.656,2.146L241.169,452.663Z" transform="translate(-45.498 55.944)"/><path class="d" d="M220.13,455.631,685.485,84.31l2.484,1.989L228.4,462.315Z" transform="translate(-60.505 46.363)"/><path class="d" d="M207.19,465.15,700.557,71.44l2.333,1.885L215.635,471.974Z" transform="translate(-75.512 36.773)"/><path class="d" d="M194.25,474.672,715.65,58.59l2.16,1.728-514.943,421.3Z" transform="translate(-90.519 27.199)"/><path class="d" d="M181.31,484.192,730.743,45.72l1.987,1.623L190.1,491.277Z" transform="translate(-105.525 17.609)"/><path class="d" d="M168.37,493.687,745.837,32.86l1.814,1.466-570.318,466.6Z" transform="translate(-120.532 8.028)"/><path class="d" d="M155.43,503.2,760.93,20l1.641,1.326L164.566,510.6Z" transform="translate(-135.539 -1.554)"/><path class="d" d="M142.13,513.349,776.44,7.15l1.469,1.169L151.417,520.853Z" transform="translate(-150.963 -11.129)"/><path class="d" d="M142.16,490.927,748.459,7.1,750.1,8.426,151.339,498.344Z" transform="translate(-150.928 -11.166)"/><path class="d" d="M142.2,468.507,720.487,7.07l1.793,1.448L151.206,475.767Z" transform="translate(-150.882 -11.188)"/><path class="d" d="M142.24,446.1,692.494,7.03l1.965,1.588-543.408,444.6Z" transform="translate(-150.836 -11.218)"/><path class="d" d="M142.28,423.683,664.479,6.99l2.16,1.728L150.94,430.681Z" transform="translate(-150.789 -11.248)"/><path class="d" d="M142.32,401.271,636.508,6.95,638.8,8.8,150.808,408.129Z" transform="translate(-150.743 -11.278)"/><path class="d" d="M142.36,378.859,608.514,6.91,611,8.917,150.675,385.578Z" transform="translate(-150.697 -11.308)"/><path class="d" d="M142.41,356.464,580.51,6.87l2.656,2.146L150.487,362.991Z" transform="translate(-150.639 -11.337)"/><path class="d" d="M142.44,334.052,552.528,6.83,555.336,9.1,150.388,340.457Z" transform="translate(-150.604 -11.367)"/><path class="d" d="M142.49,311.64,524.523,6.79,527.5,9.2,150.243,317.905Z" transform="translate(-150.546 -11.397)"/><path class="d" d="M142.52,289.218,496.52,6.74l3.218,2.583L150.122,295.378Z" transform="translate(-150.511 -11.434)"/><path class="d" d="M142.56,266.8,468.548,6.71l3.348,2.7L149.989,272.8Z" transform="translate(-150.465 -11.457)"/><path class="d" d="M142.61,244.421,440.544,6.67l3.52,2.845L149.823,250.233Z" transform="translate(-150.407 -11.486)"/><path class="d" d="M142.65,221.992,412.55,6.63,416.222,9.6,149.712,227.7Z" transform="translate(-150.36 -11.516)"/><path class="d" d="M142.69,199.58,384.557,6.59l3.866,3.124L149.579,205.147Z" transform="translate(-150.314 -11.546)"/><path class="d" d="M142.72,177.15,356.6,6.55l4,3.246L149.458,182.612Z" transform="translate(-150.279 -11.576)"/><path class="d" d="M142.76,154.763,328.582,6.5l4.211,3.42L149.326,160.051Z" transform="translate(-150.233 -11.613)"/><path class="d" d="M142.81,132.368,300.556,6.46l4.427,3.56L149.16,137.482Z" transform="translate(-150.175 -11.643)"/><path class="d" d="M142.86,109.956,272.551,6.42l4.6,3.7L149.015,114.93Z" transform="translate(-150.117 -11.673)"/><path class="d" d="M142.89,87.519,244.591,6.39l4.73,3.822L148.894,92.388Z" transform="translate(-150.082 -11.695)"/><path class="d" d="M142.93,65.132,216.6,6.34l4.9,3.979L148.761,69.844Z" transform="translate(-150.035 -11.732)"/><path class="d" d="M142.97,42.7,188.583,6.3l5.119,4.118L148.65,47.292Z" transform="translate(-149.989 -11.762)"/><path class="d" d="M143.02,20.308,160.579,6.26l5.291,4.275L148.484,24.723Z" transform="translate(-149.931 -11.792)"/></g></g><rect class="e" width="530" height="502" transform="translate(331 3222)"/><g transform="translate(10 130.778)"><rect class="f" width="136" height="110" transform="translate(359 3444.222)"/><rect class="f" width="136" height="139" transform="translate(517 3415.222)"/><rect class="f" width="135" height="220" transform="translate(676 3334.222)"/></g><g transform="translate(10 135.778)"><rect class="f" width="136" height="110" transform="translate(359 3444.222)"/><rect class="f" width="136" height="139" transform="translate(517 3415.222)"/><rect class="f" width="135" height="220" transform="translate(676 3334.222)"/></g><g transform="translate(-3162 1754)"><g class="t" transform="matrix(1, 0, 0, 1, 3330, 1272)"><rect class="f" width="220" height="220" rx="2" transform="translate(514 69)"/></g><text class="g" transform="translate(3873 1434)"><tspan x="0" y="0">Total </tspan><tspan x="0" y="28">Online Shoppers</tspan></text><text class="h" transform="translate(3873 1523)"><tspan x="0" y="0">80m+</tspan></text><g transform="translate(2399 -866.847)"><circle class="d" cx="25" cy="25" r="25" transform="translate(1474 2221.847)"/><path class="a" d="M8.477,21.939a2.492,2.492,0,1,0,2.492,2.492A2.489,2.489,0,0,0,8.477,21.939ZM1,2V4.492H3.492l4.486,9.459L6.3,17a2.409,2.409,0,0,0-.312,1.2,2.5,2.5,0,0,0,2.492,2.492H23.431V18.2H9a.309.309,0,0,1-.312-.312l.037-.15,1.122-2.031h9.284a2.481,2.481,0,0,0,2.181-1.284l4.461-8.088a1.218,1.218,0,0,0,.15-.6,1.25,1.25,0,0,0-1.246-1.246H6.246L5.075,2H1ZM20.939,21.939a2.492,2.492,0,1,0,2.492,2.492A2.489,2.489,0,0,0,20.939,21.939Z" transform="translate(1485.462 2232.462)"/></g></g><g transform="translate(-3604 2293)"><g class="s" transform="matrix(1, 0, 0, 1, 3772, 733)"><rect class="i" width="220" height="220" rx="2" transform="translate(72 608)"/></g><text class="g" transform="translate(3873 1434)"><tspan x="0" y="0">Total </tspan><tspan x="0" y="28">Online Businesses</tspan></text><text class="j" transform="translate(3873 1523)"><tspan x="0" y="0">10m+</tspan></text><g transform="translate(2399 -866.847)"><circle class="k" cx="25" cy="25" r="25" transform="translate(1474 2221.847)"/><path class="a" d="M23.6,6.8H18.8V4.4A2.392,2.392,0,0,0,16.4,2H11.6A2.392,2.392,0,0,0,9.2,4.4V6.8H4.4A2.382,2.382,0,0,0,2.012,9.2L2,22.4a2.392,2.392,0,0,0,2.4,2.4H23.6A2.392,2.392,0,0,0,26,22.4V9.2A2.392,2.392,0,0,0,23.6,6.8Zm-7.2,0H11.6V4.4h4.8Z" transform="translate(1486 2232.462)"/></g></g><g transform="translate(-423.621 -314.621)"><circle class="l" cx="18" cy="18" r="18" transform="translate(792.621 3566.621)"/><g transform="translate(794.571 3568.425)"><path class="m" d="M290.1,13.537l-1.931,5.354a39.947,39.947,0,0,1,0,20.495l1.931,5.353a16.548,16.548,0,0,0,0-31.2Z" transform="translate(-268.032 -12.591)"/><g transform="translate(16.501 0)"><path class="n" d="M242.359,6.3V.949A16.511,16.511,0,0,0,236.842,0C239.394,0,235.856,8.65,242.359,6.3Z" transform="translate(-236.796 -0.003)"/><path class="n" d="M236.235,389.262a16.511,16.511,0,0,0,5.517-.946v-5.353C235.314,382.321,236.235,389.262,236.235,389.262Z" transform="translate(-236.19 -356.169)"/></g><g transform="translate(0 0.924)"><path class="o" d="M0,28.853A16.55,16.55,0,0,0,11.1,44.476V13.231A16.55,16.55,0,0,0,0,28.853Z" transform="translate(0 -13.231)"/><path class="o" d="M315.8,90.169v20.495A39.941,39.941,0,0,0,315.8,90.169Z" transform="translate(-293.74 -84.794)"/></g><path class="p" d="M169.776,26.8V6.3C168.65,2.585,166.811,0,164.26,0a16.511,16.511,0,0,0-5.452.924V32.174a16.51,16.51,0,0,0,5.452.924C166.811,33.1,168.65,30.517,169.776,26.8Z" transform="translate(-147.713 -0.004)"/></g></g><text class="q" transform="translate(369 3336)"><tspan x="0" y="0">E-Commerce</tspan><tspan x="0" y="42">growth in </tspan><tspan x="0" y="84">Nigeria</tspan></text><text class="r" transform="translate(419 3564)"><tspan x="0" y="0">2018</tspan></text><text class="r" transform="translate(574 3534)"><tspan x="0" y="0">2019</tspan></text><text class="r" transform="translate(733 3450)"><tspan x="0" y="0">2020</tspan></text></g></svg>