<svg xmlns="http://www.w3.org/2000/svg" xmlns:xlink="http://www.w3.org/1999/xlink" width="1924" height="691" viewBox="0 0 1924 691"><defs><style>.a{fill:#e8f0f7;}.b,.c{fill:#fff;}.b{stroke:#707070;}.d{clip-path:url(#a);}.e{opacity:0.148;}.f,.k{opacity:0.15;}.f{clip-path:url(#b);}.g{clip-path:url(#c);}.h{fill:#051b2e;}.i{clip-path:url(#d);}.j{opacity:0.162;}.k{clip-path:url(#e);}.l{clip-path:url(#f);}</style><clipPath id="a"><rect class="a" width="346" height="689" transform="translate(1258.421 5269)"/></clipPath><clipPath id="b"><ellipse class="b" cx="353.5" cy="354" rx="353.5" ry="354" transform="translate(0.3 -0.314)"/></clipPath><clipPath id="c"><rect class="c" width="1061" height="1060" transform="translate(0.021 0.422)"/></clipPath><clipPath id="d"><rect class="a" width="377" height="356" transform="translate(163 -0.299)"/></clipPath><clipPath id="e"><ellipse class="b" cx="376.5" cy="377" rx="376.5" ry="377" transform="translate(0.209 0)"/></clipPath><clipPath id="f"><rect class="c" width="1130" height="1129" transform="translate(0.158 -0.384)"/></clipPath></defs><g transform="translate(4 -4781)"><g class="d" transform="translate(315.579 -488)"><g class="e" transform="translate(1122.121 5249.314)"><g class="f" transform="translate(0 0)"><g transform="translate(-323.721 -148.737)"><g class="g" transform="translate(0 0)"><path class="h" d="M293.02,306.814l2.132-4.153.955-1.984,1.948-.956,7.056-3.491,5.806,11.65-7.019,3.528,2.9-2.9-2.058,4.189Z" transform="translate(760.301 760.468)"/><path class="h" d="M283.1,333.733l14.663-29,.992-1.948,1.911-.956,31.053-15.324,5.659,11.319-30.869,15.655,2.9-2.9-14.369,29.105Z" transform="translate(733.766 734.468)"/><path class="h" d="M273.27,359.723,300.1,306.841l1.029-1.984,1.911-.956L358.05,276.78l5.549,11.1-54.72,27.746,2.94-2.94-26.2,53.213Z" transform="translate(707.472 708.441)"/><path class="h" d="M263.47,385.687l38.954-76.769,1.029-1.948,1.911-.956,79.011-38.954,5.365,10.768-78.569,39.836,2.94-2.9-38.072,77.21Z" transform="translate(681.258 682.441)"/><path class="h" d="M253.68,411.677l51.045-100.619.992-1.948,1.911-.955L410.6,257.33l5.255,10.547-102.42,51.89,2.9-2.9L266.469,418.071Z" transform="translate(655.07 656.414)"/><path class="h" d="M243.87,437.576l63.135-124.469,1.029-1.985,1.911-.956L436.914,247.62l5.108,10.18L315.788,321.853l2.9-2.9-61.7,125.2Z" transform="translate(628.829 630.44)"/><path class="h" d="M225.84,484.1l44.246-21.792-3.271,3.307,64.532-127.189.992-1.985,1.911-.919L462.174,272.5l-2.536,2.536,23.226-45.826,9.665,4.814-22.748,46.083-.809,1.654-1.727.882L340.093,347.175l2.9-2.9L279.972,472.2l-1.066,2.168-2.242,1.1-43.952,22.343Z" transform="translate(580.601 581.195)"/><path class="h" d="M206.27,536.016l92.277-45.5-3.307,3.307,64.531-127.189.992-1.984,1.911-.919L490.6,300.674l-2.536,2.573,47.443-93.527,9.077,4.557-46.341,94.041-.809,1.69-1.727.882L368.518,375.385l2.94-2.9L308.4,500.406l-1.066,2.168-2.205,1.139-91.763,46.524Z" transform="translate(528.252 529.061)"/><path class="h" d="M188.48,583.521l2.131-4.19,1.249-2.462,2.425-1.176L322.21,512.669,318.9,515.94l64.531-127.189.992-1.984,1.911-.919,127.924-63.025-2.536,2.536,64.532-127.189.735-1.47,1.434-.7,7.056-3.491,4.3,8.636-7.019,3.565,2.2-2.2L521.906,330.43l-.809,1.69L519.37,333,392.181,397.534l2.94-2.94L332.1,522.518l-1.1,2.168-2.2,1.139L201.6,590.357l3.675-3.675-2.058,4.189Z" transform="translate(480.666 483.025)"/><path class="h" d="M178.55,610.377l14.7-28.995,1.249-2.462,2.426-1.176,127.924-63.025-3.271,3.271L386.11,390.837l.992-1.985,1.911-.919,127.924-63.025-2.536,2.536,64.568-127.189.735-1.47,1.4-.661L612.154,182.8l4.116,8.232L585.4,206.687l2.132-2.131L524.544,332.479l-.845,1.654-1.691.882L394.819,399.547l2.9-2.9L334.7,524.567l-1.066,2.168-2.2,1.14L204.238,592.407l3.675-3.675L193.58,617.873Z" transform="translate(454.104 457.052)"/><path class="h" d="M168.74,636.4l26.827-52.882,1.286-2.462,2.389-1.213,127.924-63.025-3.271,3.308L388.427,392.94l.992-1.984,1.911-.919,127.924-63.025-2.536,2.536L581.25,202.359l.735-1.47,1.433-.7,55.014-27.121,4.006,8.011-54.719,27.746,2.168-2.168L526.861,334.583l-.808,1.69-1.727.845L397.136,401.65l2.9-2.9L337.015,526.671l-1.066,2.169-2.2,1.139L206.555,594.51l3.675-3.675-26.2,53.213Z" transform="translate(427.863 431.025)"/><path class="h" d="M158.92,662.357l38.954-76.732,1.286-2.5,2.425-1.213L329.51,518.888,326.2,522.2l64.531-127.152,1.029-1.984,1.911-.956L521.6,329.079l-2.536,2.536,64.531-127.152.735-1.47,1.433-.7,79.011-38.954,3.859,7.754L590.1,210.967l2.168-2.168L529.242,336.723l-.845,1.654-1.69.882L399.517,403.79l2.94-2.9L339.432,528.811l-1.066,2.168-2.242,1.139L208.936,596.65l3.675-3.675-38.036,77.21Z" transform="translate(401.595 404.998)"/><path class="h" d="M149.13,688.321,200.175,587.7l1.249-2.5,2.426-1.176L331.774,521l-3.271,3.307L393.034,397.12l.992-1.984,1.911-.919L523.9,331.192l-2.536,2.536,64.532-127.189.735-1.433,1.4-.7L691.034,153.62l3.712,7.46L592.362,213.007l2.131-2.168L531.505,338.8l-.845,1.654-1.69.882L401.781,405.866l2.9-2.9L341.659,530.887l-1.066,2.168-2.2,1.139L211.2,598.726l3.675-3.675L165.006,696.259Z" transform="translate(375.408 378.998)"/><path class="h" d="M139.33,714.311,202.5,589.8l1.249-2.462,2.389-1.176L334.1,523.142l-3.307,3.271,64.531-127.189.992-1.948,1.911-.956L526.189,333.3l-2.536,2.536,64.531-127.189.735-1.433,1.4-.735L717.321,143.89l3.6,7.2-126.27,64.054,2.168-2.168L533.8,340.9l-.845,1.691-1.691.845L404.071,407.97l2.9-2.9L343.949,532.991l-1.066,2.168-2.2,1.139L213.49,600.829l3.675-3.675-61.7,125.2Z" transform="translate(349.193 352.971)"/><path class="h" d="M121.51,760.637l44.246-21.829-4.042,4.042L226.245,615.7l1.249-2.5,2.425-1.176L357.844,549l-3.271,3.271,64.532-127.152.992-1.984,1.911-.919,127.924-63.025-2.5,2.536,64.532-127.189.735-1.47,1.4-.662L742.02,169.379l-1.764,1.764L751.8,148.175l11.686-22.895,6.578,3.307-11.282,23.079-11.429,23-.588,1.139-1.213.625L618.4,240.966l2.131-2.132L557.5,366.759l-.808,1.654-1.691.882L427.815,433.826l2.9-2.9L367.693,558.847l-1.066,2.168-2.2,1.139L237.233,626.686l3.675-3.675L177.883,750.935l-1.323,2.646-2.719,1.4-43.989,22.343Z" transform="translate(301.526 303.191)"/><path class="h" d="M101.93,812.514l92.277-45.459-4.042,4.042L254.7,643.908l1.249-2.5,2.425-1.176L386.3,577.209l-3.271,3.307,64.532-127.189.992-1.984,1.911-.956,127.924-63.025-2.536,2.536,64.532-127.152.735-1.47,1.433-.7,127.924-63.025-1.764,1.764,47.406-93.527,6.1,3.05-46.377,94.078-.588,1.139-1.213.625L646.847,269.214l2.168-2.168L585.99,394.969l-.809,1.69-1.727.882L456.266,462.037l2.94-2.9L396.181,587.057l-1.066,2.168-2.242,1.139L265.684,654.9l3.675-3.675L206.334,779.145l-1.323,2.683-2.719,1.36-91.726,46.561Z" transform="translate(249.151 251.056)"/><path class="h" d="M83.93,860.192,86.062,856l1.507-2.976,2.94-1.433,127.924-63.025-4.079,4.042,64.532-127.189,1.286-2.462,2.425-1.213L410.52,598.722l-3.307,3.308L471.744,474.84l.992-1.984,1.911-.919,127.961-63.025-2.572,2.536,64.531-127.189.772-1.47,1.433-.7L794.7,219.066l-1.8,1.8L857.464,93.714l.478-.955.919-.441,7.019-3.528,2.83,5.623-7.056,3.528,1.433-1.433L800.1,224.468l-.588,1.176-1.213.625L671.109,290.8l2.168-2.168L610.252,416.556l-.809,1.69-1.727.882L480.527,483.66l2.94-2.94L420.442,608.644l-1.066,2.168-2.242,1.139L289.946,676.483l3.675-3.675L230.6,800.732l-1.323,2.683-2.72,1.4L99.365,869.343l4.447-4.447-2.058,4.189Z" transform="translate(201.003 205.583)"/><path class="h" d="M74.01,887.048l14.7-28.958,1.507-2.977,2.9-1.433,127.924-63.025L217,794.7,281.57,667.508l1.249-2.462,2.389-1.213,127.924-63.025-3.271,3.307,64.532-127.189.992-1.948,1.911-.956L605.256,411l-2.535,2.536,64.531-127.189.735-1.433,1.4-.7,127.961-63.025-1.8,1.764L860.075,95.764l.478-.955.919-.441L892.524,79.08l2.609,5.218L864.3,99.99l1.4-1.433L802.673,226.518l-.588,1.139-1.213.625L673.72,292.813l2.131-2.168L612.827,418.606l-.809,1.654-1.727.882L483.139,485.673l2.9-2.9L423.017,610.694l-1.066,2.131-2.242,1.139L292.557,678.5l3.638-3.638L233.207,802.782l-1.323,2.646-2.756,1.4L101.976,871.356l4.41-4.41L92.017,896.088Z" transform="translate(174.468 179.609)"/><path class="h" d="M64.19,913.075l26.864-52.882,1.507-2.977,2.9-1.433,127.924-63.062-4.042,4.079,64.531-127.189,1.249-2.5,2.426-1.176,127.924-63.025-3.271,3.307L476.737,479.03l.992-1.984,1.911-.919L607.6,413.1l-2.536,2.536L669.6,288.449l.735-1.47,1.4-.7,127.961-63.025-1.8,1.8L862.419,97.867l.478-.955.956-.441L918.866,69.35l2.5,5-54.72,27.746,1.4-1.4L805.017,228.621l-.551,1.176-1.213.588L676.064,294.953l2.168-2.168L615.207,420.709l-.808,1.654-1.727.882L485.483,487.776l2.9-2.9L425.361,612.8l-1.029,2.168L422.09,616.1,294.9,680.636l3.675-3.675L235.552,804.885l-1.286,2.683-2.756,1.4L104.32,873.5l4.447-4.447-26.2,53.213Z" transform="translate(148.2 153.582)"/><path class="h" d="M54.38,939.065,93.334,862.3l1.543-3.013,2.9-1.433L225.7,794.861l-4.042,4.042,64.532-127.189,1.286-2.5,2.389-1.176,127.961-63.025-3.307,3.307,64.532-127.189.992-1.948,1.948-.955,127.924-63.025-2.536,2.536,64.531-127.152.735-1.47,1.433-.7L802.006,225.4l-1.764,1.764,64.495-127.152.514-.955.919-.478L945.144,59.62l2.389,4.741L868.963,104.2l1.4-1.4L807.334,230.724l-.588,1.176-1.176.588L678.381,297.02l2.168-2.132L617.525,422.812l-.808,1.69-1.727.845L487.8,489.879l2.94-2.9L427.715,614.9l-1.066,2.168-2.242,1.139L297.219,682.739l3.675-3.675L237.906,807.025l-1.323,2.646-2.756,1.4L106.674,875.6l4.41-4.447L73.049,948.4Z" transform="translate(121.959 127.555)"/><path class="h" d="M44.58,964.991,95.625,864.372l1.543-3.013,2.9-1.433L228,796.9l-4.042,4.079,64.532-127.189,1.249-2.5,2.426-1.176L420.12,607.091l-3.307,3.307L481.344,483.21l.992-1.948,1.911-.955,127.961-63.025-2.536,2.536L674.2,292.628l.735-1.433,1.433-.7L804.3,227.472l-1.764,1.764,64.495-127.189.478-.956.956-.441L971.468,49.9l2.2,4.447L871.29,106.31l1.4-1.433L809.661,232.8l-.588,1.176-1.213.625L680.672,299.133l2.168-2.168L619.815,424.925l-.809,1.654-1.727.882L490.127,491.993l2.9-2.94L430.005,617.014l-1.066,2.168-2.242,1.139L299.546,684.853l3.675-3.675L240.2,809.1l-1.323,2.683-2.72,1.4L108.965,877.712l4.447-4.447L63.543,974.473Z" transform="translate(95.745 101.555)"/><path class="h" d="M34.78,990.955,97.952,866.449l1.507-2.977,2.94-1.433,127.924-63.025-4.042,4.043L290.812,675.9l1.249-2.5,2.425-1.176L422.41,609.2l-3.271,3.271,64.532-127.152.992-1.984,1.911-.919L614.5,419.395l-2.536,2.536,64.568-127.189.735-1.47,1.4-.7,127.961-62.988-1.8,1.764L869.354,104.16l.478-.955.919-.441L997.756,40.18l2.058,4.116L873.544,108.35l1.4-1.4L811.915,234.877l-.588,1.176-1.176.588L682.962,301.21l2.168-2.168L622.106,426.965l-.808,1.69-1.727.845L492.381,494.069l2.94-2.94L432.3,619.09l-1.066,2.131-2.242,1.139L301.836,686.892l3.638-3.675L242.486,811.178l-1.323,2.646-2.756,1.4L111.255,879.752l4.41-4.41L54,1000.547Z" transform="translate(69.531 75.555)"/><path class="h" d="M17.17,1037.1l44.246-21.829-4.814,4.814L121.133,892.93l1.543-3.013,2.9-1.433L253.5,825.459l-4.042,4.079,64.532-127.189,1.249-2.5,2.426-1.176,127.924-63.025-3.271,3.307,64.531-127.189.992-1.948,1.911-.955L637.717,445.84l-2.536,2.536,64.532-127.189.735-1.433,1.433-.7L829.8,256.03l-1.764,1.764,64.531-127.189.478-.919.882-.478,127.924-63.025-1.029,1.029,23.225-45.863,3.638,1.837-22.748,46.083-.331.661-.662.368L896.725,134.795l1.4-1.4L835.1,261.322l-.551,1.176-1.213.588L706.144,327.655l2.168-2.168L645.287,453.447l-.809,1.654-1.727.845L515.563,520.514l2.94-2.94L455.478,645.535l-1.066,2.131-2.242,1.139L325.018,713.374l3.675-3.675L265.668,837.623l-1.323,2.646-2.719,1.4L134.437,906.2l4.41-4.41L75.858,1029.711l-1.58,3.161-3.234,1.654-43.989,22.344Z" transform="translate(22.425 25.186)"/><path class="h" d="M1.2,1071.493l79.011-38.917L75.4,1037.39,139.928,910.2l1.543-3.013,2.9-1.4L272.3,842.766l-4.042,4.042,64.532-127.189,1.286-2.5,2.389-1.176,127.961-63.025-3.307,3.307,64.532-127.189.992-1.948,1.911-.955L656.511,463.11l-2.536,2.536,64.531-127.189.735-1.433,1.4-.7L848.6,273.3l-1.764,1.764,64.531-127.189.478-.919.919-.478,127.924-63.025-1.029,1.029L1079.531,5.95l3.161,1.58-38.954,79.011-.331.661-.662.367L915.557,152.1l1.4-1.4L853.928,278.629l-.588,1.139-1.213.625L724.975,344.925l2.131-2.131L664.082,470.717l-.809,1.654-1.69.882L534.394,537.784l2.9-2.9L474.272,662.8l-1.066,2.168-2.2,1.139L343.813,730.644l3.675-3.675L284.463,854.893l-1.323,2.683-2.719,1.36L153.231,923.5l4.41-4.447L94.653,1046.981l-1.58,3.16-3.234,1.654-78.57,39.873Z" transform="translate(-20.293 -16.007)"/><path class="h" d="M1.22,1035.816,56.234,1008.7l-4.814,4.851,64.532-127.189,1.507-3.014,2.94-1.433,127.924-63.025-4.079,4.079,64.568-127.189,1.25-2.5,2.425-1.213L440.41,629.039l-3.307,3.307,64.532-127.152.992-1.984,1.948-.956L632.5,439.23l-2.536,2.572,64.532-127.189.735-1.47,1.433-.735,127.924-63.025-1.8,1.837,64.532-127.189.478-.955.956-.478,127.96-63.025-1.065,1.066,27.782-54.72,3.491,1.764L1019.8,62.7l-.331.7-.7.368L891.616,128.295l1.4-1.433L829.988,254.822,829.437,256l-1.25.625L701.035,321.155l2.168-2.2L640.178,446.91l-.845,1.654-1.727.882L510.453,513.978l2.94-2.9L450.369,639l-1.1,2.168-2.242,1.139L319.872,706.837l3.675-3.675L260.522,831.087l-1.323,2.683-2.756,1.359L129.291,899.7l4.41-4.447L70.713,1023.175l-1.58,3.16-3.271,1.654-54.683,27.746Z" transform="translate(-20.24 -16.088)"/><path class="h" d="M1.24,1000.149l31.053-15.288-4.814,4.814L92.01,862.487l1.507-2.977,2.9-1.433,127.961-63.025-4.079,4.042L284.87,671.906l1.25-2.462,2.425-1.213,127.924-62.988-3.307,3.271,64.532-127.152,1.029-1.984,1.911-.956L608.557,415.4l-2.536,2.536L670.553,290.78l.735-1.47,1.433-.7,127.924-63.025-1.764,1.8,64.495-127.226.478-.955.956-.441L992.733,35.74,991.7,36.769,1007.323,5.9l3.822,1.911L995.82,38.827l-.331.7-.7.331L867.6,104.388l1.433-1.4L805.974,230.915l-.588,1.176-1.176.588L677.021,297.248l2.168-2.168L616.164,423l-.809,1.69-1.727.845L486.44,490.07l2.9-2.9L426.355,615.091l-1.066,2.168-2.242,1.139L295.858,682.93l3.675-3.675L236.545,807.216l-1.323,2.646-2.756,1.4L105.277,875.79l4.447-4.41L46.7,999.3l-1.543,3.16-3.271,1.654-30.833,15.655Z" transform="translate(-20.186 -16.141)"/><path class="h" d="M1.25,964.419l7.056-3.491-4.814,4.851L68.023,838.59l1.543-3.014,2.9-1.433,127.924-63.025-4.042,4.079,64.532-127.189,1.249-2.5,2.426-1.176,127.924-63.025-3.307,3.307,64.532-127.189,1.029-1.985,1.911-.955,127.961-63.025-2.572,2.572,64.531-127.189.735-1.47,1.433-.7,127.924-63.025-1.8,1.8L839.389,76.265l.514-.955.919-.478L968.783,11.843l-1.029,1.029,3.565-6.982,4.042,1.984-3.491,7.093-.331.661-.7.367L843.688,80.564l1.433-1.433L782.1,207.055l-.588,1.176-1.213.625L653.107,273.387l2.168-2.168L592.25,399.143l-.808,1.69-1.727.882L462.526,466.247l2.94-2.94L402.441,591.231l-1.066,2.168-2.242,1.139L271.945,659.07l3.712-3.675L212.631,783.319,211.308,786l-2.756,1.4L81.363,851.93l4.447-4.447L22.785,975.407l-1.543,3.16-3.271,1.69-7.019,3.528Z" transform="translate(-20.159 -16.168)"/><path class="h" d="M0,909.1l47.443-93.527,1.543-3.013,2.9-1.433,127.961-62.988-4.079,4.043L240.3,625.031l1.286-2.5,2.425-1.213,127.924-62.988-3.307,3.271L433.2,434.45l.992-1.984,1.911-.956,127.924-62.988-2.536,2.536,64.568-127.189.735-1.47,1.4-.7,127.961-62.988-1.764,1.764L818.919,53.287l.478-.919.919-.478L914.357,5.55l2.242,4.483L823.072,57.477l1.4-1.4L761.443,184l-.551,1.176-1.213.588L632.49,250.336l2.168-2.168L571.634,376.129l-.808,1.654-1.727.882L441.946,443.2l2.9-2.9L381.824,568.217l-1.066,2.168-2.2,1.139L251.364,636.056l3.675-3.675L192.014,760.3l-1.286,2.683-2.756,1.4L60.783,828.915l4.447-4.447L18.889,918.547Z" transform="translate(-23.503 -17.077)"/><path class="h" d="M.07,837.719l23.262-45.826,1.543-3.013,2.9-1.433L155.74,724.421,151.66,728.5l64.532-127.152,1.286-2.5,2.425-1.213,127.924-62.988-3.307,3.271,64.532-127.152,1.029-1.984,1.911-.956,127.924-62.988-2.536,2.536,64.568-127.189.735-1.47,1.4-.7L732.04,155.029l-1.8,1.764L794.771,29.6l.514-.919.919-.478L842.251,5.46l2.572,5.145L799,33.794l1.4-1.4L737.369,160.358l-.588,1.139-1.213.625L608.416,226.653l2.131-2.168L547.56,352.446l-.845,1.654-1.691.882L417.835,419.513l2.9-2.9L357.75,544.534l-1.066,2.168-2.242,1.139L227.254,612.373l3.712-3.675L167.94,736.659l-1.323,2.646-2.756,1.4L36.709,805.269l4.447-4.483-22.711,46.12Z" transform="translate(-23.316 -17.318)"/><path class="h" d="M1.36,762.226l127.005-62.547-4.079,4.042,64.568-127.152,1.249-2.5,2.425-1.176,127.924-63.025-3.271,3.307,64.531-127.189.992-1.948,1.911-.956L512.578,320.1l-2.536,2.5,64.532-127.152.772-1.47,1.4-.7L704.666,130.25l-1.764,1.764L766.956,5.78l5.586,2.793L709.958,135.578l-.551,1.139-1.213.625L581,201.874l2.168-2.168L520.148,327.666l-.808,1.654-1.727.882L390.46,394.733l2.9-2.9L330.375,519.754l-1.066,2.168-2.242,1.139L199.879,587.593l3.712-3.675L140.566,711.879l-1.323,2.646-2.756,1.4L10.253,780.012Z" transform="translate(-19.865 -16.462)"/><path class="h" d="M1.38,726.559l103.008-50.751-4.042,4.079L164.877,552.7l1.249-2.5,2.425-1.176L296.513,486l-3.307,3.307,64.532-127.189.992-1.984,1.911-.919L488.6,296.189l-2.572,2.536L550.6,171.536l.735-1.433,1.433-.7,127.924-63.025-1.764,1.764L730.851,5.76l5.917,2.94L686.017,111.708l-.551,1.176-1.213.625L557.064,178.04l2.168-2.168L496.208,303.8l-.808,1.69-1.727.882L366.483,370.9l2.94-2.94L306.4,495.921l-1.066,2.168-2.242,1.1L175.939,563.76l3.675-3.712L116.589,688.009l-1.323,2.646-2.756,1.4L10.126,744.015Z" transform="translate(-19.812 -16.516)"/><path class="h" d="M1.4,690.892l79.048-38.917-4.079,4.043,64.568-127.189,1.249-2.462,2.425-1.213,127.924-62.988-3.307,3.271L333.76,338.283l1.029-1.984,1.911-.955,127.924-63.025-2.536,2.536L526.619,147.7l.735-1.47,1.433-.7L656.712,82.509l-1.764,1.764L694.821,5.74l6.137,3.087L662.04,87.838l-.551,1.176-1.213.625L533.087,154.17,535.256,152,472.231,279.926l-.809,1.69-1.727.882L342.506,347.03l2.94-2.94L282.421,472.05l-1.066,2.168-2.242,1.1L151.961,539.889l3.675-3.675L92.612,664.138l-1.323,2.646-2.756,1.4L10,708.054Z" transform="translate(-19.758 -16.569)"/><path class="h" d="M1.42,655.188l55.014-27.121-4.042,4.079,64.532-127.189,1.286-2.5,2.389-1.176,127.961-63.025-3.307,3.307,64.532-127.152.992-1.984,1.948-.956,127.924-63.025-2.536,2.536,64.532-127.152.735-1.47,1.433-.7L632.734,58.639l-1.764,1.8L658.716,5.72l6.468,3.234L638.1,64l-.588,1.139-1.213.625L509.147,130.3l2.132-2.168L448.29,256.092l-.845,1.654-1.691.882L318.565,323.159l2.9-2.9L258.48,448.18l-1.066,2.168-2.242,1.139L127.984,516.019l3.675-3.675L68.671,640.268l-1.323,2.683-2.756,1.4L9.872,672.093Z" transform="translate(-19.705 -16.623)"/><path class="h" d="M1.44,619.522l31.053-15.288-4.042,4.042L92.982,481.124l1.249-2.5,2.425-1.176,127.924-63.025-3.271,3.307,64.532-127.189.992-1.985,1.911-.919,127.924-63.025-2.536,2.536L478.7,99.962l.735-1.47,1.4-.661L608.794,34.805l-1.8,1.764L622.685,5.7l6.688,3.381L614.122,40.1l-.588,1.176-1.213.625L485.17,106.43l2.131-2.168L424.276,232.222l-.809,1.654-1.727.882L294.588,299.289l2.9-2.9L234.467,424.31l-1.066,2.168-2.2,1.139L104.007,492.149l3.675-3.675L44.657,616.4l-1.286,2.683-2.756,1.4L9.745,636.132Z" transform="translate(-19.651 -16.676)"/><path class="h" d="M1.46,583.855l7.056-3.491-4.042,4.079L69.005,457.254l1.249-2.5,2.425-1.176L200.6,390.554l-3.271,3.307,64.532-127.189.992-1.984,1.911-.919,127.961-63.025-2.572,2.536L454.725,76.091l.735-1.47,1.4-.7L584.817,10.935l-1.8,1.764,3.565-7.019,7.056,3.528-3.491,7.056-.588,1.176-1.176.588L461.192,82.6l2.168-2.168L400.336,208.352l-.845,1.654-1.69.882L270.611,275.419l2.9-2.9L210.489,400.44l-1.066,2.168-2.2,1.139L80.03,468.279,83.7,464.6,20.68,592.528l-1.323,2.683-2.719,1.4-7.019,3.528Z" transform="translate(-19.598 -16.73)"/><path class="h" d="M.42,528.3l47.443-93.527,1.286-2.462,2.389-1.213L179.5,368.075l-3.307,3.307,64.532-127.189.992-1.948,1.911-.955,127.961-63.025-2.536,2.536L433.583,53.612l.735-1.433,1.433-.7L529.792,5.14l3.785,7.5-93.527,47.48,2.168-2.168L379.194,185.872l-.809,1.654-1.727.882L249.469,252.94l2.9-2.9L189.384,377.961l-1.066,2.168-2.242,1.139L58.888,445.8l3.675-3.675L16.222,536.2Z" transform="translate(-22.38 -18.174)"/><path class="h" d="M.49,456.891l23.262-45.826,1.286-2.5,2.389-1.176,127.961-63.025-3.307,3.307L216.612,220.52l1.029-1.984,1.911-.955,127.924-63.025-2.536,2.536L409.472,29.939l.735-1.47,1.433-.7L457.723,5.06l4.043,8.085L415.94,36.407l2.168-2.168L355.083,162.163l-.808,1.69-1.727.845L225.358,229.267l2.94-2.94L165.273,354.288l-1.066,2.131-2.242,1.139L34.814,422.127l3.675-3.675L15.778,464.535Z" transform="translate(-22.192 -18.388)"/><path class="h" d="M1.57,381.661l127.005-62.547-3.307,3.271,64.568-127.152.992-1.984,1.911-.919L320.7,129.3l-2.536,2.536L382.181,5.57l8.673,4.336L328.27,136.875l-.845,1.654-1.69.882L198.546,203.942l2.94-2.9L138.461,329l-1.066,2.168-2.242,1.1L8.92,396.361Z" transform="translate(-19.303 -17.024)"/><path class="h" d="M1.59,345.994,104.6,295.244l-3.271,3.307,64.532-127.189.992-1.984,1.911-.919,127.924-63.025-2.536,2.536L346.114,5.55l8.93,4.483L304.33,113.041l-.845,1.654-1.727.882L174.605,180.109l2.9-2.9L114.484,305.129l-1.066,2.168-2.242,1.139L8.793,360.363Z" transform="translate(-19.25 -17.077)"/><path class="h" d="M1.61,310.264l79.011-38.917-3.307,3.307,64.568-127.189.992-1.984,1.911-.919L272.746,81.537l-2.536,2.536L310.083,5.54l9.151,4.594L280.316,89.144l-.808,1.654-1.727.882L150.628,156.212l2.9-2.9L90.543,281.232,89.477,283.4l-2.242,1.139L8.7,324.413Z" transform="translate(-19.196 -17.104)"/><path class="h" d="M1.63,274.624,56.644,247.5l-3.271,3.307L117.9,123.622l.992-1.984,1.911-.956L248.732,57.657,246.2,60.23,273.941,5.51l9.555,4.777L256.375,65.3l-.809,1.69-1.727.882L126.651,132.4l2.94-2.94L66.566,257.389,65.5,259.557,63.258,260.7,8.539,288.442Z" transform="translate(-19.143 -17.184)"/><path class="h" d="M1.65,238.894l31.016-15.288L29.4,226.914,93.927,99.725l.992-1.948,1.948-.955L224.791,33.834l-2.536,2.5L237.947,5.5l9.7,4.851L232.361,41.4l-.808,1.654-1.69.882L102.674,108.471l2.94-2.9L42.589,233.529,41.523,235.7l-2.242,1.139L8.449,252.491Z" transform="translate(-19.089 -17.211)"/><path class="h" d="M1.67,203.227l7.056-3.491-3.307,3.307L69.95,75.891l1.029-1.984,1.911-.955L200.814,9.963,198.278,12.5l3.565-7.019,10.069,5-3.491,7.056-.809,1.69-1.727.845L78.733,84.638l2.9-2.94L18.611,209.659l-1.066,2.168L15.3,212.966l-6.982,3.565Z" transform="translate(-19.036 -17.265)"/><path class="h" d="M.83,147.464l47.443-93.49L49.3,51.989l1.911-.955,94.078-46.3,5.255,10.51L57.056,62.72l2.9-2.94-46.3,94.078Z" transform="translate(-21.283 -19.271)"/><path class="h" d="M.9,76.09,24.2,30.264l.992-1.984,1.911-.919L73.222,4.65l5.512,11.1L32.945,39.011l2.9-2.9L13.174,82.191Z" transform="translate(-21.096 -19.485)"/></g></g></g></g></g><g class="i" transform="translate(-167 5116.299)"><g class="j" transform="translate(-250.209 -21.299)"><g class="k" transform="translate(0 0)"><g transform="translate(-31.949 -157.616)"><g class="l" transform="translate(0 0)"><path class="h" d="M312.079,307.5l-2.27-4.422-1.017-2.113-2.074-1.018L299.2,296.23l-6.184,12.407,7.475,3.757L297.4,309.3l2.192,4.461Z" transform="translate(-303.88 828.674)"/><path class="h" d="M340.905,336.8,325.29,305.922l-1.057-2.074L322.2,302.83l-33.071-16.32L283.1,298.564l32.875,16.672-3.092-3.092,15.3,31Z" transform="translate(-293.882 800.353)"/><path class="h" d="M369.468,365.112,340.9,308.794l-1.1-2.113-2.035-1.018L279.18,276.78,273.27,288.6l58.275,29.548-3.131-3.131,27.9,56.67Z" transform="translate(-283.974 772.002)"/><path class="h" d="M397.944,393.394l-41.485-81.757-1.1-2.074-2.035-1.018L269.184,267.06l-5.714,11.467,83.674,42.424-3.131-3.092,40.546,82.226Z" transform="translate(-274.095 743.681)"/><path class="h" d="M426.391,421.7,372.03,314.548l-1.057-2.074-2.035-1.017L259.277,257.33l-5.6,11.232,109.074,55.261-3.092-3.092,53.109,107.783Z" transform="translate(-264.227 715.331)"/><path class="h" d="M454.9,449.918,387.659,317.362l-1.1-2.113-2.035-1.018L249.31,247.62l-5.44,10.841L378.3,326.676l-3.092-3.092,65.711,133.339Z" transform="translate(-254.339 687.039)"/><path class="h" d="M509.856,500.663l-47.121-23.208,3.483,3.522L397.494,345.525l-1.057-2.114-2.035-.978-136.235-67.12,2.7,2.7-24.735-48.8-10.293,5.127,24.226,49.077.861,1.761,1.839.939L388.18,354.839l-3.092-3.092,67.12,136.236,1.135,2.309,2.387,1.174,46.808,23.795Z" transform="translate(-238.736 633.398)"/><path class="h" d="M566.564,557.216l-98.273-48.452,3.522,3.522L403.089,376.834l-1.057-2.113L400,373.743,263.762,306.584l2.7,2.74-50.525-99.6-9.667,4.853,49.352,100.151.861,1.8,1.839.939,135.452,68.685-3.131-3.092L457.8,519.293l1.135,2.309,2.348,1.213,97.725,49.547Z" transform="translate(-218.852 576.611)"/><path class="h" d="M615.855,608.926l-2.27-4.462-1.331-2.622-2.583-1.252L473.436,533.47l3.522,3.483L408.234,401.5l-1.057-2.113-2.035-.978-136.236-67.12,2.7,2.7L202.882,198.537l-.783-1.566-1.527-.744-7.514-3.718-4.579,9.2,7.475,3.8-2.348-2.348,67.158,136.235.861,1.8,1.839.939,135.453,68.724-3.131-3.131,67.12,136.235,1.174,2.309,2.348,1.213,135.453,68.724-3.914-3.914,2.192,4.461Z" transform="translate(-198.519 526.466)"/><path class="h" d="M644.709,638.157l-15.655-30.879-1.331-2.622-2.583-1.253-136.235-67.12,3.483,3.484L423.664,404.354l-1.057-2.114-2.035-.978-136.235-67.12,2.7,2.7L218.274,201.39l-.783-1.565-1.487-.7-33.07-16.32-4.383,8.766,32.875,16.672-2.27-2.27L276.236,342.2l.9,1.761,1.8.939,135.453,68.724-3.092-3.092,67.12,136.235,1.135,2.309L481.9,550.3l135.453,68.724-3.914-3.914L628.7,646.141Z" transform="translate(-188.51 498.174)"/><path class="h" d="M673.214,666.507l-28.57-56.318-1.37-2.622-2.544-1.291L504.5,539.156l3.483,3.522L439.254,407.226l-1.057-2.113-2.035-.978-136.235-67.12,2.7,2.7L233.9,204.262l-.783-1.566-1.526-.744L173.006,173.07,168.74,181.6l58.275,29.548-2.309-2.309,67.12,136.235.861,1.8,1.84.9L429.979,416.5l-3.092-3.092,67.119,136.235,1.135,2.309,2.348,1.213,135.453,68.724-3.914-3.914,27.9,56.67Z" transform="translate(-178.622 469.824)"/><path class="h" d="M701.748,694.779l-41.485-81.718-1.37-2.661-2.583-1.292-136.235-67.12,3.522,3.522L454.873,410.1l-1.1-2.113-2.035-1.018-136.235-67.12,2.7,2.7L249.483,207.134l-.783-1.565-1.526-.744L163.029,163.34,158.92,171.6l83.635,42.463-2.309-2.309,67.12,136.235.9,1.761,1.8.939,135.453,68.724-3.131-3.092,67.12,136.235,1.135,2.309,2.387,1.213L648.483,624.8l-3.914-3.914,40.507,82.227Z" transform="translate(-168.724 441.474)"/><path class="h" d="M730.195,723.061,675.834,615.9l-1.331-2.661-2.583-1.253-136.235-67.12,3.483,3.522L470.444,412.941l-1.057-2.113-2.035-.978-136.275-67.12,2.7,2.7L265.053,209.977l-.782-1.526-1.487-.744-109.7-54.087-3.953,7.945,109.035,55.3-2.27-2.309,67.081,136.275.9,1.761,1.8.939,135.453,68.724-3.092-3.092L525.157,555.4l1.135,2.309,2.348,1.213,135.453,68.724-3.914-3.914,53.109,107.783Z" transform="translate(-158.856 413.153)"/><path class="h" d="M758.71,751.372l-67.276-132.6-1.331-2.622-2.544-1.253-136.275-67.12,3.522,3.483L486.083,415.813l-1.057-2.074-2.035-1.018L346.716,345.6l2.7,2.7L280.692,212.849l-.783-1.526-1.487-.783L143.165,143.89l-3.835,7.671L273.8,219.776l-2.309-2.309L338.615,353.7l.9,1.8,1.8.9,135.453,68.724-3.092-3.092L540.8,558.271l1.135,2.309,2.348,1.213,135.453,68.724-3.914-3.914,65.711,133.339Z" transform="translate(-149.016 384.803)"/><path class="h" d="M812.2,801.917,765.076,778.67l4.305,4.3L700.657,647.561l-1.331-2.661-2.583-1.252-136.235-67.12,3.483,3.483L495.267,444.6l-1.056-2.113-2.035-.979L355.94,374.386l2.661,2.7L289.877,241.634l-.783-1.565-1.487-.7-136.235-67.12,1.878,1.879-12.289-24.461L128.515,125.28,121.51,128.8l12.015,24.578,12.172,24.5.626,1.213,1.291.665,135.414,68.724-2.27-2.27,67.12,136.235.861,1.761,1.8.939,135.452,68.724-3.092-3.092,67.12,136.235,1.135,2.309,2.348,1.213,135.453,68.725-3.914-3.914,67.12,136.235,1.409,2.818,2.9,1.487,46.847,23.795Z" transform="translate(-132.762 330.579)"/><path class="h" d="M869.012,858.431,770.74,810.019l4.3,4.3L706.32,678.871l-1.331-2.661-2.583-1.252-136.235-67.12,3.483,3.522L500.93,475.907l-1.057-2.113-2.035-1.018L361.6,405.656l2.7,2.7L295.579,272.944l-.783-1.566-1.526-.744-136.236-67.12,1.879,1.879-50.486-99.6-6.5,3.248,49.39,100.19.626,1.213,1.292.665,135.452,68.724-2.309-2.309L353.5,413.758l.861,1.8,1.839.939,135.452,68.685-3.131-3.092,67.12,136.235,1.135,2.309,2.388,1.213,135.452,68.724-3.914-3.914,67.12,136.235,1.409,2.857,2.9,1.448,97.686,49.587Z" transform="translate(-112.947 273.792)"/><path class="h" d="M919.7,910.312l-2.27-4.462-1.6-3.17-3.131-1.526-136.235-67.12,4.344,4.3L712.077,702.886l-1.37-2.622-2.583-1.292-136.235-67.12,3.522,3.523L506.686,499.923l-1.057-2.113-2.035-.978L367.32,429.711l2.739,2.7L301.335,296.959l-.822-1.565-1.526-.744L162.752,227.53l1.918,1.918L95.906,94.034,95.4,93.017l-.978-.47L86.943,88.79,83.93,94.778l7.514,3.757-1.526-1.526L157,233.283l.626,1.252,1.292.665,135.453,68.724-2.309-2.309,67.12,136.236.861,1.8,1.839.939,135.452,68.724-3.131-3.131,67.12,136.235,1.135,2.309,2.387,1.213L700.3,714.667l-3.914-3.914L763.5,846.988l1.409,2.857,2.9,1.487L903.26,920.057l-4.736-4.736,2.192,4.462Z" transform="translate(-93.186 224.259)"/><path class="h" d="M948.484,939.543,932.829,908.7l-1.6-3.17-3.092-1.526L791.9,836.887l4.305,4.305L727.439,705.739l-1.331-2.622-2.544-1.291-136.235-67.12,3.483,3.522L522.088,502.775l-1.057-2.074L519,499.684l-136.274-67.12,2.7,2.7L316.7,299.812l-.782-1.526-1.487-.744-136.274-67.12,1.917,1.879L111.347,96.848l-.509-1.018-.978-.47L76.789,79.08,74.01,84.637l32.836,16.711-1.487-1.526L172.478,236.1l.626,1.213,1.291.665L309.81,306.7l-2.27-2.309,67.12,136.274.861,1.761,1.839.939L512.773,512.09,509.681,509,576.8,645.234l1.135,2.27,2.387,1.214,135.414,68.724-3.875-3.875L778.943,849.8l1.409,2.818,2.935,1.487L918.7,922.831l-4.7-4.7,15.3,31.035Z" transform="translate(-83.148 195.967)"/><path class="h" d="M977.057,967.893l-28.609-56.318-1.6-3.17-3.092-1.526L807.516,839.72l4.305,4.344L743.1,708.611l-1.331-2.661-2.583-1.252-136.235-67.12,3.483,3.522L537.707,505.648l-1.056-2.113-2.035-.978L398.34,435.436l2.7,2.7L332.317,302.684l-.783-1.565-1.487-.744-136.274-67.12,1.917,1.918L126.965,99.72l-.509-1.018-1.018-.47L66.851,69.35,64.19,74.673l58.275,29.548-1.487-1.487L188.1,238.969l.587,1.252,1.291.626,135.453,68.764-2.309-2.309,67.12,136.235.861,1.761,1.84.939,135.453,68.725L525.3,511.87l67.12,136.235,1.1,2.309,2.387,1.213,135.453,68.724-3.914-3.914,67.12,136.235,1.37,2.857,2.935,1.487L934.32,925.743l-4.736-4.736,27.9,56.67Z" transform="translate(-73.289 167.617)"/><path class="h" d="M1005.562,996.2l-41.485-81.757-1.644-3.209-3.092-1.526L823.106,842.631l4.305,4.305L758.687,711.483l-1.37-2.661-2.544-1.252L618.5,640.45l3.522,3.522L553.3,508.52l-1.057-2.074-2.074-1.018L413.93,438.308l2.7,2.7L347.906,305.6l-.783-1.565-1.526-.744-136.235-67.12,1.879,1.879L142.555,102.631l-.548-1.018-.978-.509L56.924,59.62,54.38,64.669l83.674,42.424-1.487-1.487,67.12,136.235.626,1.252,1.252.626,135.453,68.724-2.309-2.27,67.12,136.235.861,1.8,1.84.9,135.452,68.724-3.131-3.092,67.12,136.235,1.135,2.309,2.387,1.213,135.453,68.724-3.914-3.914,67.081,136.275,1.409,2.818,2.935,1.487L949.87,928.615l-4.7-4.736,40.507,82.266Z" transform="translate(-63.401 139.267)"/><path class="h" d="M1034.038,1024.447,979.677,917.29l-1.644-3.209-3.092-1.526-136.235-67.12,4.305,4.344L774.287,714.326l-1.331-2.661-2.583-1.253L634.1,643.293l3.522,3.522L568.9,511.363l-1.057-2.074-2.035-1.017L429.53,441.151l2.7,2.7L363.506,308.4l-.783-1.526-1.526-.744-136.235-67.12,1.879,1.879L158.155,105.435l-.509-1.018-1.018-.47L46.928,49.9,44.58,54.636l109.035,55.34-1.487-1.526,67.12,136.235.626,1.252,1.292.665,135.453,68.724-2.309-2.309,67.12,136.274.861,1.761,1.839.939,135.414,68.724-3.092-3.131,67.12,136.275,1.135,2.309,2.387,1.213,135.414,68.724-3.914-3.914,67.12,136.235,1.409,2.857,2.9,1.487L965.47,931.5l-4.736-4.736,53.109,107.783Z" transform="translate(-53.523 110.946)"/><path class="h" d="M1062.514,1052.729l-67.276-132.6-1.6-3.17-3.131-1.526-136.235-67.12,4.3,4.305L789.847,717.208l-1.331-2.661-2.583-1.252L649.7,646.175l3.483,3.483L584.457,514.245l-1.057-2.113-2.035-.978L445.13,444.033l2.7,2.7L379.067,311.281l-.783-1.565-1.487-.744L240.522,241.891l1.918,1.878L173.716,108.317l-.509-1.018-.978-.47L36.972,40.18,34.78,44.563l134.474,68.216-1.487-1.487,67.12,136.235.626,1.252,1.252.626,135.453,68.763-2.309-2.309L437.029,452.1l.861,1.8,1.839.9,135.453,68.764-3.131-3.131L639.17,656.7l1.135,2.27,2.387,1.213L778.106,728.91,774.232,725l67.081,136.275,1.409,2.818,2.935,1.487L981.07,934.3l-4.7-4.7,65.672,133.34Z" transform="translate(-43.644 82.625)"/><path class="h" d="M1114.645,1103.093l-47.121-23.247,5.127,5.127-68.724-135.413-1.644-3.209-3.092-1.526L862.956,877.7l4.305,4.344L798.537,746.595l-1.331-2.661-2.583-1.252-136.235-67.12,3.483,3.522L593.147,543.631l-1.057-2.074-2.035-1.017L453.781,473.42l2.7,2.7L387.757,340.668l-.783-1.526-1.526-.744-136.235-67.12,1.879,1.879L182.367,137.7l-.509-.978-.94-.509L44.683,69.1l1.1,1.1L21.044,21.35,17.17,23.307,41.4,72.384l.352.7.7.391,135.492,68.685-1.487-1.487,67.12,136.235.587,1.252,1.292.626,135.452,68.764-2.309-2.309,67.12,136.274.861,1.761,1.839.9,135.453,68.763-3.131-3.131,67.12,136.275,1.135,2.27,2.387,1.213L786.8,758.336l-3.914-3.914L850,890.658l1.409,2.818,2.9,1.487L989.76,963.687l-4.7-4.7,67.081,136.236,1.683,3.366,3.444,1.761,46.847,23.8Z" transform="translate(-26.856 27.76)"/><path class="h" d="M1152.958,1140.723l-84.144-41.446,5.127,5.127-68.724-135.453-1.644-3.209-3.092-1.487-136.235-67.12,4.305,4.3L799.827,765.987l-1.37-2.661-2.544-1.252-136.275-67.12,3.522,3.522L594.436,563.024l-1.057-2.074-2.035-1.018L455.07,492.812l2.7,2.7L389.046,360.06l-.783-1.526-1.487-.744L250.5,290.671l1.879,1.879L183.656,157.1l-.509-.978-.978-.509L45.934,88.49l1.1,1.1L4.566,5.95,1.2,7.633,42.685,91.777l.352.7.7.391L179.194,161.6l-1.487-1.487,67.12,136.235.626,1.213,1.292.665,135.413,68.724-2.27-2.27,67.12,136.235.861,1.761,1.8.939,135.453,68.724-3.092-3.092,67.12,136.235,1.135,2.309L652.633,709l135.453,68.724-3.914-3.914,67.12,136.235,1.409,2.857,2.9,1.448,135.453,68.763-4.7-4.735,67.08,136.235,1.683,3.366,3.444,1.761,83.675,42.464Z" transform="translate(-2.668 -17.111)"/><path class="h" d="M1114.859,1102.73l-58.588-28.883,5.127,5.166L992.674,943.561l-1.6-3.209-3.131-1.526L851.7,871.706l4.344,4.344L787.284,740.6l-1.331-2.661-2.583-1.292-136.235-67.12,3.522,3.522L581.933,537.633l-1.057-2.113L578.8,534.5l-136.235-67.12,2.7,2.739L376.542,334.669l-.783-1.565-1.526-.783L238,265.2l1.918,1.957L171.191,131.706l-.509-1.018-1.018-.509L33.391,63.06l1.135,1.135L4.938,5.92,1.22,7.8,30.1,66.386l.352.744.744.391,135.413,68.724-1.487-1.526,67.12,136.274.587,1.252,1.331.665,135.414,68.724-2.309-2.348,67.12,136.275.9,1.761,1.84.939L572.54,546.987l-3.131-3.092,67.12,136.235,1.174,2.309,2.387,1.213L775.5,752.377l-3.914-3.914L838.709,884.7l1.409,2.857L843.054,889l135.414,68.763-4.7-4.736,67.081,136.236,1.683,3.365,3.483,1.761,58.235,29.548Z" transform="translate(35.353 -17.198)"/><path class="h" d="M1076.76,1064.748l-33.071-16.281,5.127,5.127L980.092,918.141l-1.6-3.17-3.092-1.526-136.274-67.12,4.344,4.3L774.7,715.177l-1.331-2.622-2.583-1.292-136.235-67.08,3.522,3.483L569.35,512.253l-1.1-2.113-2.035-1.018L429.984,442l2.7,2.7L363.96,309.289l-.783-1.566-1.526-.744L225.416,239.86l1.878,1.918L158.609,106.286l-.509-1.018-1.018-.47L20.847,37.679l1.1,1.1L5.31,5.9,1.24,7.935,17.56,40.967l.352.744.743.352,135.453,68.724-1.526-1.487,67.159,136.235.626,1.252,1.252.626,135.453,68.763-2.309-2.309L421.883,450.1l.861,1.8,1.839.9,135.453,68.724-3.092-3.092,67.08,136.235,1.135,2.309,2.387,1.213L763,726.918,759.086,723l67.081,136.274,1.409,2.818,2.935,1.487,135.453,68.724-4.736-4.7,67.12,136.235,1.644,3.366,3.483,1.761,32.836,16.672Z" transform="translate(73.375 -17.256)"/><path class="h" d="M1038.65,1026.7l-7.514-3.718,5.127,5.166L967.539,892.692l-1.644-3.209-3.092-1.526-136.235-67.12,4.305,4.344L762.148,689.728l-1.331-2.661-2.583-1.252L622,618.695l3.522,3.522L556.8,486.765l-1.1-2.113-2.035-1.018-136.274-67.12,2.739,2.74L351.407,283.8l-.783-1.565-1.526-.744-136.235-67.12,1.918,1.918L146.056,80.837l-.548-1.018-.978-.509L8.255,12.23l1.1,1.1L5.555,5.89,1.25,8l3.718,7.553.352.7.744.391L141.477,85.416l-1.526-1.526,67.12,136.235.626,1.252,1.292.665,135.453,68.724-2.309-2.309,67.12,136.235.861,1.8,1.839.939L547.4,496.157l-3.131-3.131,67.12,136.235,1.135,2.309,2.387,1.213,135.453,68.724-3.953-3.914,67.12,136.235,1.409,2.857,2.935,1.487L953.332,906.9l-4.736-4.736,67.12,136.236,1.644,3.366,3.483,1.8,7.475,3.757Z" transform="translate(111.445 -17.286)"/><path class="h" d="M976.151,967.808l-50.526-99.6-1.644-3.209-3.092-1.526L784.616,796.388l4.344,4.305L720.236,665.28l-1.37-2.661-2.583-1.291L580.047,594.246l3.522,3.483L514.806,462.316l-1.057-2.113-2.035-1.018L375.479,392.1l2.7,2.7L309.416,259.353l-.783-1.565-1.487-.744L170.871,189.963l1.879,1.879L104.026,56.389l-.509-.978-.978-.509L2.387,5.55,0,10.325,99.6,60.85l-1.487-1.487L165.236,195.6l.587,1.252,1.291.626,135.453,68.763-2.309-2.309,67.12,136.275.861,1.761,1.839.939,135.414,68.724-3.092-3.092,67.12,136.235,1.135,2.309L573,608.3l135.453,68.724-3.914-3.914,67.12,136.235,1.37,2.857,2.935,1.487,135.453,68.724-4.736-4.735,49.352,100.19Z" transform="translate(178.836 -18.276)"/><path class="h" d="M899.709,891.792l-24.774-48.8-1.644-3.209-3.092-1.526-136.275-67.12,4.344,4.344L669.545,640.064l-1.37-2.661-2.583-1.291L529.357,569.031l3.522,3.483L464.155,437.1l-1.1-2.113-2.035-1.018L324.789,366.889l2.7,2.7L258.726,234.137l-.783-1.566-1.487-.744L120.181,164.747l1.918,1.879L53.374,31.173l-.548-.978-.978-.509L2.81,5.46.07,10.939l48.8,24.7-1.487-1.487,67.12,136.275.626,1.213,1.291.665,135.413,68.724-2.27-2.309,67.08,136.274.9,1.761,1.8.939L454.8,446.415l-3.092-3.092,67.08,136.235,1.135,2.309,2.387,1.213,135.453,68.724-3.953-3.914,67.12,136.274,1.409,2.818,2.935,1.487,135.414,68.763-4.736-4.775,24.187,49.116Z" transform="translate(255.004 -18.538)"/><path class="h" d="M822.647,811.373,687.39,744.762l4.344,4.305L622.971,613.654l-1.331-2.661-2.583-1.252L482.822,542.62l3.483,3.522L417.581,410.69l-1.057-2.074-2.035-1.018L278.214,340.517l2.7,2.661L212.19,207.765l-.822-1.565-1.487-.744L73.646,138.337l1.879,1.879L7.309,5.78,1.36,8.754,68.01,144.011l.587,1.213,1.291.665,135.453,68.724-2.309-2.309,67.12,136.275.861,1.761,1.839.939L408.266,420l-3.092-3.092,67.081,136.235,1.135,2.309,2.387,1.213L611.23,625.395l-3.953-3.914L674.4,757.756l1.409,2.818,2.935,1.487,134.435,68.255Z" transform="translate(327.018 -17.606)"/><path class="h" d="M784.547,773.39l-109.7-54.048,4.305,4.344L610.428,588.234l-1.331-2.661-2.583-1.252L470.239,517.2l3.522,3.522L405.037,385.27l-1.057-2.113-2.035-.978-136.274-67.12,2.74,2.7L199.647,182.306l-.783-1.526-1.526-.744L61.1,112.917l1.879,1.879L7.681,5.76,1.38,8.891l54.048,109.7.587,1.252,1.292.665,135.453,68.724-2.309-2.309L257.57,323.16l.861,1.8,1.839.939,135.453,68.724-3.131-3.131,67.12,136.274,1.135,2.309,2.387,1.174,135.414,68.763-3.914-3.953,67.12,136.275,1.409,2.818,2.935,1.487,109.035,55.34Z" transform="translate(365.039 -17.664)"/><path class="h" d="M746.409,735.407l-84.183-41.446,4.344,4.305L597.806,562.814l-1.331-2.622-2.583-1.292L457.658,491.82l3.522,3.483L392.456,359.889l-1.1-2.113-2.035-1.018-136.235-67.12,2.7,2.7L187.065,156.926l-.783-1.565-1.526-.744L48.521,87.5,50.4,89.375,7.936,5.74,1.4,9.028,42.846,93.172l.587,1.252,1.291.665,135.453,68.724-2.309-2.309,67.12,136.235.861,1.8,1.839.939L383.141,369.2l-3.131-3.131,67.12,136.274,1.135,2.309,2.387,1.174,135.414,68.763-3.914-3.914,67.12,136.235,1.409,2.818,2.935,1.487,83.635,42.464Z" transform="translate(403.099 -17.723)"/><path class="h" d="M708.31,697.386,649.722,668.5l4.305,4.344L585.3,537.394l-1.37-2.661-2.544-1.252-136.275-67.12,3.522,3.522L379.913,334.47l-1.057-2.113-2.074-1.018-136.235-67.12,2.7,2.7L174.522,131.506l-.783-1.565-1.526-.744L35.978,62.077l1.879,1.918L8.308,5.72,1.42,9.164,30.264,67.791,30.89,69l1.291.665L167.6,138.394l-2.27-2.309,67.081,136.274.9,1.761,1.8.939,135.453,68.724-3.092-3.092,67.081,136.235,1.135,2.309,2.387,1.213,135.453,68.724-3.914-3.914L636.689,681.5l1.409,2.857,2.935,1.487,58.275,29.548Z" transform="translate(441.12 -17.781)"/><path class="h" d="M670.171,659.4,637.1,643.122l4.305,4.3L572.681,512.013l-1.331-2.661-2.583-1.252L432.532,440.98l3.483,3.522L367.291,309.05l-1.057-2.113-2.035-.978-136.235-67.12,2.7,2.7L161.9,106.086l-.783-1.565-1.487-.7L23.357,36.7l1.918,1.879L8.563,5.7,1.44,9.3,17.682,42.332l.626,1.252,1.291.665,135.413,68.724-2.27-2.309,67.12,136.275.861,1.761,1.839.939,135.413,68.724-3.092-3.092L422,451.508l1.135,2.309,2.348,1.213L560.94,523.755l-3.914-3.914,67.12,136.235,1.37,2.857,2.935,1.487,32.875,16.672Z" transform="translate(479.18 -17.839)"/><path class="h" d="M632.111,621.42,624.6,617.7l4.305,4.344L560.178,486.594l-1.331-2.661-2.583-1.252L420.029,415.56l3.483,3.522L354.788,283.63l-1.057-2.113-2.035-.978-136.274-67.12,2.74,2.7L149.4,80.666l-.783-1.566-1.487-.744L10.853,11.277l1.918,1.879L8.974,5.68,1.46,9.437l3.718,7.514L5.8,18.2l1.253.626L142.509,87.593,140.2,85.284,207.32,221.52l.9,1.761,1.8.939,135.453,68.724-3.092-3.092L409.5,426.088l1.135,2.309,2.348,1.213,135.453,68.724-3.914-3.914,67.12,136.235,1.409,2.857,2.9,1.487,7.475,3.757Z" transform="translate(517.162 -17.897)"/><path class="h" d="M568.218,562.292l-50.526-99.6-1.37-2.622-2.544-1.291L377.5,391.656l3.522,3.522L312.3,259.725l-1.057-2.074-2.035-1.018-136.275-67.12,2.7,2.7L106.911,56.762l-.783-1.526-1.526-.744L4.451,5.14.42,13.124l99.6,50.565L97.714,61.38l67.12,136.235.861,1.761,1.839.939L302.987,269.04l-3.092-3.092,67.081,136.235,1.135,2.309,2.387,1.213L505.951,474.43l-3.914-3.914,49.352,100.19Z" transform="translate(585.126 -19.471)"/><path class="h" d="M491.736,486.248l-24.774-48.8-1.37-2.661-2.544-1.252-136.275-67.12,3.522,3.522L261.572,234.519l-1.1-2.113-2.035-1.018-136.235-67.12,2.7,2.7L56.182,31.556,55.4,29.99l-1.526-.744L4.8,5.06.49,13.67l48.8,24.774-2.309-2.309L114.1,172.37l.861,1.8,1.839.9,135.453,68.763-3.131-3.131,67.12,136.275,1.135,2.27,2.387,1.213,135.414,68.763-3.914-3.914,24.187,49.077Z" transform="translate(661.334 -19.704)"/><path class="h" d="M416.147,406.1,280.89,339.486l3.522,3.483L215.649,207.555l-1.057-2.113-2.035-.978L76.282,137.344l2.7,2.7L10.806,5.57,1.57,10.188,68.22,145.406l.9,1.761,1.8.939,135.453,68.724-3.131-3.092,67.12,136.274,1.135,2.309,2.387,1.174,134.435,68.255Z" transform="translate(732.696 -18.218)"/><path class="h" d="M378.008,368.114l-109.7-54.048,3.483,3.522L203.067,182.136l-1.057-2.113-2.035-.978L63.739,111.924l2.7,2.7L11.1,5.55,1.59,10.325,55.6,120.025l.9,1.761,1.839.939L193.752,191.45l-3.092-3.092,67.12,136.235,1.135,2.309,2.387,1.213,109.035,55.3Z" transform="translate(770.756 -18.276)"/><path class="h" d="M339.87,330.063l-84.144-41.446,3.522,3.522L190.484,156.686l-1.057-2.113-2.035-.978L51.118,86.475l2.7,2.7L11.355,5.54,1.61,10.432,43.056,94.576l.861,1.761,1.839.939L181.17,166l-3.092-3.092,67.081,136.235,1.135,2.309,2.387,1.213,83.635,42.464Z" transform="translate(808.816 -18.305)"/><path class="h" d="M301.81,292.109l-58.588-28.883,3.483,3.522L177.981,131.3l-1.057-2.113-2.035-1.018L38.654,61.045l2.7,2.74L11.806,5.51,1.63,10.6,30.513,69.186l.861,1.8,1.839.939L168.666,140.65l-3.131-3.131,67.12,136.235,1.135,2.309,2.387,1.213,58.275,29.548Z" transform="translate(846.798 -18.393)"/><path class="h" d="M263.632,254.058,230.6,237.777l3.483,3.522L165.359,105.847l-1.057-2.074-2.074-1.018L25.993,35.675l2.7,2.661L11.982,5.5,1.65,10.666,17.931,43.737l.861,1.761,1.8.939,135.453,68.724-3.131-3.092,67.12,136.274,1.135,2.309,2.387,1.213,32.836,16.672Z" transform="translate(884.897 -18.422)"/><path class="h" d="M225.572,216.075l-7.514-3.718,3.522,3.522L152.856,80.466l-1.1-2.113-2.035-1.018L13.489,10.255l2.7,2.7-3.8-7.475L1.67,10.8l3.718,7.514.861,1.8,1.839.9L143.5,89.781,140.41,86.65l67.12,136.275,1.135,2.309,2.387,1.213,7.436,3.8Z" transform="translate(922.879 -18.48)"/><path class="h" d="M160.274,156.738,109.748,57.173l-1.1-2.113-2.035-1.018L6.427,4.73.83,15.923l99.564,50.565L97.3,63.357l49.312,100.19Z" transform="translate(991.465 -20.665)"/><path class="h" d="M83.792,80.732l-24.813-48.8-1.057-2.113-2.035-.978L6.771,4.65.9,16.469,49.665,41.243l-3.092-3.092L70.72,87.229Z" transform="translate(1067.673 -20.899)"/></g></g></g></g></g></g></svg>