<svg xmlns="http://www.w3.org/2000/svg" width="141.148" height="23.696" viewBox="0 0 141.148 23.696"><defs><style>.a{fill:#20b731;}.b{fill:#fff;}</style></defs><rect class="a" width="23.696" height="23.696"/><path class="b" d="M948.187,404.152l2.487,5.04,5.563.808-4.025,3.923.95,5.54-4.975-2.616-4.975,2.616.95-5.54L940.137,410l5.563-.808Z" transform="translate(-935.841 -401.092)"/><g transform="translate(29.878)"><rect class="a" width="23.696" height="23.696"/><path class="b" d="M948.187,404.152l2.487,5.04,5.563.808-4.025,3.923.95,5.54-4.975-2.616-4.975,2.616.95-5.54L940.137,410l5.562-.808Z" transform="translate(-936.537 -401.092)"/></g><g transform="translate(58.726)"><rect class="a" width="23.696" height="23.696"/><path class="b" d="M948.187,404.152l2.487,5.04,5.563.808-4.025,3.923.95,5.54-4.975-2.616-4.975,2.616.95-5.54L940.137,410l5.562-.808Z" transform="translate(-936.203 -401.092)"/></g><g transform="translate(88.604)"><rect class="a" width="23.696" height="23.696"/><path class="b" d="M948.187,404.152l2.487,5.04,5.563.808-4.025,3.923.95,5.54-4.975-2.616-4.975,2.616.95-5.54L940.137,410l5.563-.808Z" transform="translate(-936.9 -401.092)"/></g><g transform="translate(117.451)"><rect class="a" width="23.696" height="23.696"/><path class="b" d="M948.187,404.152l2.487,5.04,5.563.808-4.025,3.923.95,5.54-4.975-2.616-4.975,2.616.95-5.54L940.137,410l5.562-.808Z" transform="translate(-936.566 -401.092)"/></g></svg>