<svg xmlns="http://www.w3.org/2000/svg" xmlns:xlink="http://www.w3.org/1999/xlink" width="489.124" height="605.338" viewBox="0 0 489.124 605.338"><defs><style>.a{fill:#fff;}.b{opacity:0.05;}.c{clip-path:url(#a);}.d{fill:#1789fc;}</style><clipPath id="a"><rect class="a" width="605.338" height="489.124"/></clipPath></defs><g class="b" transform="translate(-9.43 751.558) rotate(-90)"><rect class="a" width="605.338" height="489.124" transform="translate(146.22 9.43)"/><g class="c" transform="translate(146.22 9.43)"><path class="d" d="M427.21,303.052l16.269-12.992,5.129,4.144-16.079,13.145Z" transform="translate(163.394 186.547)"/><path class="d" d="M414.25,312l43.593-34.8,4.961,4.008-43.067,35.224Z" transform="translate(149.114 177.566)"/><path class="d" d="M401.3,320.912l70.9-56.572,4.792,3.872L406.975,325.5Z" transform="translate(134.845 168.586)"/><path class="d" d="M388.37,329.842l98.157-78.362,4.624,3.736-96.98,79.313Z" transform="translate(120.598 159.605)"/><path class="d" d="M375.42,338.755,500.88,238.62l4.456,3.6L381.41,343.595Z" transform="translate(106.329 150.624)"/><path class="d" d="M362.48,347.667,515.223,225.76l4.288,3.465L368.639,352.643Z" transform="translate(92.07 141.643)"/><path class="d" d="M349.54,356.58,529.565,212.9l4.12,3.329-177.8,145.463Z" transform="translate(77.812 132.663)"/><path class="d" d="M336.6,365.493,543.928,200.04l3.93,3.193L343.095,370.741Z" transform="translate(63.554 123.682)"/><path class="d" d="M323.66,374.406,558.25,187.18l3.783,3.057L330.323,379.789Z" transform="translate(49.296 114.701)"/><path class="d" d="M310.72,383.319l261.872-209,3.615,2.921-258.656,211.6Z" transform="translate(35.038 105.72)"/><path class="d" d="M297.78,392.231,586.934,161.46l3.447,2.785L304.8,397.9Z" transform="translate(20.779 96.74)"/><path class="d" d="M284.83,401.144,601.287,148.6l3.279,2.649-312.527,255.7Z" transform="translate(6.51 87.759)"/><path class="d" d="M271.89,410.04l343.74-274.3,3.111,2.514L279.268,416Z" transform="translate(-7.748 78.778)"/><path class="d" d="M258.96,418.963,629.982,122.89l2.9,2.344L266.464,425.026Z" transform="translate(-21.995 69.804)"/><path class="d" d="M246.02,427.883,644.3,110.02l2.774,2.242L253.713,434.1Z" transform="translate(-36.253 60.817)"/><path class="d" d="M233.07,436.788,658.678,97.17l2.585,2.089L240.952,443.14Z" transform="translate(-50.523 51.843)"/><path class="d" d="M220.13,445.684,673.02,84.31l2.417,1.936L228.18,452.189Z" transform="translate(-64.781 42.862)"/><path class="d" d="M207.19,454.6,687.341,71.44l2.27,1.834-474.2,387.97Z" transform="translate(-79.039 33.874)"/><path class="d" d="M194.25,463.527,701.683,58.59l2.1,1.681L202.636,470.286Z" transform="translate(-93.297 24.901)"/><path class="d" d="M181.31,472.447,716.026,45.72l1.934,1.579L189.865,479.342Z" transform="translate(-107.555 15.913)"/><path class="d" d="M168.37,481.342l562-448.482,1.766,1.427-555.041,454.1Z" transform="translate(-121.814 6.932)"/><path class="d" d="M155.43,490.255,744.71,20l1.6,1.291L164.321,497.456Z" transform="translate(-136.072 -2.048)"/><path class="d" d="M142.13,499.789,759.449,7.15l1.429,1.138-609.71,498.8Z" transform="translate(-150.727 -11.022)"/><path class="d" d="M142.16,477.967,732.218,7.1l1.6,1.291L151.093,485.185Z" transform="translate(-150.694 -11.057)"/><path class="d" d="M142.2,456.147,705,7.07l1.745,1.41L150.965,463.212Z" transform="translate(-150.65 -11.078)"/><path class="d" d="M142.24,434.334,677.754,7.03l1.913,1.545L150.816,441.263Z" transform="translate(-150.605 -11.106)"/><path class="d" d="M142.28,412.521,650.491,6.99l2.1,1.681L150.708,419.332Z" transform="translate(-150.561 -11.134)"/><path class="d" d="M142.32,390.708,623.27,6.95l2.228,1.8L150.58,397.383Z" transform="translate(-150.517 -11.162)"/><path class="d" d="M142.36,368.9,596.028,6.91l2.417,1.953L150.452,375.434Z" transform="translate(-150.473 -11.19)"/><path class="d" d="M142.41,347.1,568.774,6.87l2.585,2.089L150.271,353.452Z" transform="translate(-150.418 -11.218)"/><path class="d" d="M142.44,325.287,541.543,6.83l2.732,2.208L150.175,331.52Z" transform="translate(-150.385 -11.246)"/><path class="d" d="M142.49,303.474,514.29,6.79l2.9,2.344L150.036,309.571Z" transform="translate(-150.33 -11.274)"/><path class="d" d="M142.52,281.651,487.037,6.74l3.132,2.514L149.919,287.647Z" transform="translate(-150.297 -11.309)"/><path class="d" d="M142.56,259.832,459.816,6.71l3.258,2.632L149.79,265.674Z" transform="translate(-150.253 -11.33)"/><path class="d" d="M142.61,238.053,432.563,6.67l3.426,2.768L149.63,243.708Z" transform="translate(-150.198 -11.357)"/><path class="d" d="M142.65,216.223,405.321,6.63l3.573,2.887L149.523,221.777Z" transform="translate(-150.154 -11.385)"/><path class="d" d="M142.69,194.41,378.078,6.59l3.762,3.04-232.446,190.2Z" transform="translate(-150.11 -11.413)"/><path class="d" d="M142.72,172.58,350.868,6.55l3.888,3.159L149.278,177.9Z" transform="translate(-150.077 -11.441)"/><path class="d" d="M142.76,150.792,323.6,6.5l4.1,3.329L149.15,155.938Z" transform="translate(-150.033 -11.476)"/><path class="d" d="M142.81,129,296.331,6.46l4.309,3.465L148.99,133.972Z" transform="translate(-149.977 -11.504)"/><path class="d" d="M142.86,107.183,269.077,6.42l4.477,3.6-124.7,102Z" transform="translate(-149.922 -11.532)"/><path class="d" d="M142.89,85.346,241.867,6.39l4.6,3.719L148.733,90.085Z" transform="translate(-149.889 -11.553)"/><path class="d" d="M142.93,63.557,214.625,6.34l4.771,3.872L148.605,68.143Z" transform="translate(-149.845 -11.588)"/><path class="d" d="M142.97,41.728,187.361,6.3l4.981,4.008L148.5,46.194Z" transform="translate(-149.801 -11.616)"/><path class="d" d="M143.02,19.932,160.108,6.26l5.15,4.161-16.92,13.808Z" transform="translate(-149.746 -11.644)"/></g></g></svg>