<svg xmlns="http://www.w3.org/2000/svg" xmlns:xlink="http://www.w3.org/1999/xlink" width="377" height="356" viewBox="0 0 377 356"><defs><style>.a{fill:#e8f0f7;}.b,.c{fill:#fff;}.b{stroke:#707070;}.d{clip-path:url(#a);}.e{opacity:0.162;}.f{opacity:0.15;clip-path:url(#b);}.g{clip-path:url(#c);}.h{fill:#051b2e;}</style><clipPath id="a"><rect class="a" width="377" height="356" transform="translate(163 -0.299)"/></clipPath><clipPath id="b"><ellipse class="b" cx="376.5" cy="377" rx="376.5" ry="377" transform="translate(0.209 0)"/></clipPath><clipPath id="c"><rect class="c" width="1130" height="1129" transform="translate(0.158 -0.384)"/></clipPath></defs><g class="d" transform="translate(-163 0.299)"><g class="e" transform="translate(-250.209 -21.299)"><g class="f" transform="translate(0 0)"><g transform="translate(-31.949 -157.616)"><g class="g" transform="translate(0 0)"><path class="h" d="M312.079,307.5l-2.27-4.422-1.017-2.113-2.074-1.018L299.2,296.23l-6.184,12.407,7.475,3.757L297.4,309.3l2.192,4.461Z" transform="translate(-303.88 828.674)"/><path class="h" d="M340.905,336.8,325.29,305.922l-1.057-2.074L322.2,302.83l-33.071-16.32L283.1,298.564l32.875,16.672-3.092-3.092,15.3,31Z" transform="translate(-293.882 800.353)"/><path class="h" d="M369.468,365.112,340.9,308.794l-1.1-2.113-2.035-1.018L279.18,276.78,273.27,288.6l58.275,29.548-3.131-3.131,27.9,56.67Z" transform="translate(-283.974 772.002)"/><path class="h" d="M397.944,393.394l-41.485-81.757-1.1-2.074-2.035-1.018L269.184,267.06l-5.714,11.467,83.674,42.424-3.131-3.092,40.546,82.226Z" transform="translate(-274.095 743.681)"/><path class="h" d="M426.391,421.7,372.03,314.548l-1.057-2.074-2.035-1.017L259.277,257.33l-5.6,11.232,109.074,55.261-3.092-3.092,53.109,107.783Z" transform="translate(-264.227 715.331)"/><path class="h" d="M454.9,449.918,387.659,317.362l-1.1-2.113-2.035-1.018L249.31,247.62l-5.44,10.841L378.3,326.676l-3.092-3.092,65.711,133.339Z" transform="translate(-254.339 687.039)"/><path class="h" d="M509.856,500.663l-47.121-23.208,3.483,3.522L397.494,345.525l-1.057-2.114-2.035-.978-136.235-67.12,2.7,2.7-24.735-48.8-10.293,5.127,24.226,49.077.861,1.761,1.839.939L388.18,354.839l-3.092-3.092,67.12,136.236,1.135,2.309,2.387,1.174,46.808,23.795Z" transform="translate(-238.736 633.398)"/><path class="h" d="M566.564,557.216l-98.273-48.452,3.522,3.522L403.089,376.834l-1.057-2.113L400,373.743,263.762,306.584l2.7,2.74-50.525-99.6-9.667,4.853,49.352,100.151.861,1.8,1.839.939,135.452,68.685-3.131-3.092L457.8,519.293l1.135,2.309,2.348,1.213,97.725,49.547Z" transform="translate(-218.852 576.611)"/><path class="h" d="M615.855,608.926l-2.27-4.462-1.331-2.622-2.583-1.252L473.436,533.47l3.522,3.483L408.234,401.5l-1.057-2.113-2.035-.978-136.236-67.12,2.7,2.7L202.882,198.537l-.783-1.566-1.527-.744-7.514-3.718-4.579,9.2,7.475,3.8-2.348-2.348,67.158,136.235.861,1.8,1.839.939,135.453,68.724-3.131-3.131,67.12,136.235,1.174,2.309,2.348,1.213,135.453,68.724-3.914-3.914,2.192,4.461Z" transform="translate(-198.519 526.466)"/><path class="h" d="M644.709,638.157l-15.655-30.879-1.331-2.622-2.583-1.253-136.235-67.12,3.483,3.484L423.664,404.354l-1.057-2.114-2.035-.978-136.235-67.12,2.7,2.7L218.274,201.39l-.783-1.565-1.487-.7-33.07-16.32-4.383,8.766,32.875,16.672-2.27-2.27L276.236,342.2l.9,1.761,1.8.939,135.453,68.724-3.092-3.092,67.12,136.235,1.135,2.309L481.9,550.3l135.453,68.724-3.914-3.914L628.7,646.141Z" transform="translate(-188.51 498.174)"/><path class="h" d="M673.214,666.507l-28.57-56.318-1.37-2.622-2.544-1.291L504.5,539.156l3.483,3.522L439.254,407.226l-1.057-2.113-2.035-.978-136.235-67.12,2.7,2.7L233.9,204.262l-.783-1.566-1.526-.744L173.006,173.07,168.74,181.6l58.275,29.548-2.309-2.309,67.12,136.235.861,1.8,1.84.9L429.979,416.5l-3.092-3.092,67.119,136.235,1.135,2.309,2.348,1.213,135.453,68.724-3.914-3.914,27.9,56.67Z" transform="translate(-178.622 469.824)"/><path class="h" d="M701.748,694.779l-41.485-81.718-1.37-2.661-2.583-1.292-136.235-67.12,3.522,3.522L454.873,410.1l-1.1-2.113-2.035-1.018-136.235-67.12,2.7,2.7L249.483,207.134l-.783-1.565-1.526-.744L163.029,163.34,158.92,171.6l83.635,42.463-2.309-2.309,67.12,136.235.9,1.761,1.8.939,135.453,68.724-3.131-3.092,67.12,136.235,1.135,2.309,2.387,1.213L648.483,624.8l-3.914-3.914,40.507,82.227Z" transform="translate(-168.724 441.474)"/><path class="h" d="M730.195,723.061,675.834,615.9l-1.331-2.661-2.583-1.253-136.235-67.12,3.483,3.522L470.444,412.941l-1.057-2.113-2.035-.978-136.275-67.12,2.7,2.7L265.053,209.977l-.782-1.526-1.487-.744-109.7-54.087-3.953,7.945,109.035,55.3-2.27-2.309,67.081,136.275.9,1.761,1.8.939,135.453,68.724-3.092-3.092L525.157,555.4l1.135,2.309,2.348,1.213,135.453,68.724-3.914-3.914,53.109,107.783Z" transform="translate(-158.856 413.153)"/><path class="h" d="M758.71,751.372l-67.276-132.6-1.331-2.622-2.544-1.253-136.275-67.12,3.522,3.483L486.083,415.813l-1.057-2.074-2.035-1.018L346.716,345.6l2.7,2.7L280.692,212.849l-.783-1.526-1.487-.783L143.165,143.89l-3.835,7.671L273.8,219.776l-2.309-2.309L338.615,353.7l.9,1.8,1.8.9,135.453,68.724-3.092-3.092L540.8,558.271l1.135,2.309,2.348,1.213,135.453,68.724-3.914-3.914,65.711,133.339Z" transform="translate(-149.016 384.803)"/><path class="h" d="M812.2,801.917,765.076,778.67l4.305,4.3L700.657,647.561l-1.331-2.661-2.583-1.252-136.235-67.12,3.483,3.483L495.267,444.6l-1.056-2.113-2.035-.979L355.94,374.386l2.661,2.7L289.877,241.634l-.783-1.565-1.487-.7-136.235-67.12,1.878,1.879-12.289-24.461L128.515,125.28,121.51,128.8l12.015,24.578,12.172,24.5.626,1.213,1.291.665,135.414,68.724-2.27-2.27,67.12,136.235.861,1.761,1.8.939,135.452,68.724-3.092-3.092,67.12,136.235,1.135,2.309,2.348,1.213,135.453,68.725-3.914-3.914,67.12,136.235,1.409,2.818,2.9,1.487,46.847,23.795Z" transform="translate(-132.762 330.579)"/><path class="h" d="M869.012,858.431,770.74,810.019l4.3,4.3L706.32,678.871l-1.331-2.661-2.583-1.252-136.235-67.12,3.483,3.522L500.93,475.907l-1.057-2.113-2.035-1.018L361.6,405.656l2.7,2.7L295.579,272.944l-.783-1.566-1.526-.744-136.236-67.12,1.879,1.879-50.486-99.6-6.5,3.248,49.39,100.19.626,1.213,1.292.665,135.452,68.724-2.309-2.309L353.5,413.758l.861,1.8,1.839.939,135.452,68.685-3.131-3.092,67.12,136.235,1.135,2.309,2.388,1.213,135.452,68.724-3.914-3.914,67.12,136.235,1.409,2.857,2.9,1.448,97.686,49.587Z" transform="translate(-112.947 273.792)"/><path class="h" d="M919.7,910.312l-2.27-4.462-1.6-3.17-3.131-1.526-136.235-67.12,4.344,4.3L712.077,702.886l-1.37-2.622-2.583-1.292-136.235-67.12,3.522,3.523L506.686,499.923l-1.057-2.113-2.035-.978L367.32,429.711l2.739,2.7L301.335,296.959l-.822-1.565-1.526-.744L162.752,227.53l1.918,1.918L95.906,94.034,95.4,93.017l-.978-.47L86.943,88.79,83.93,94.778l7.514,3.757-1.526-1.526L157,233.283l.626,1.252,1.292.665,135.453,68.724-2.309-2.309,67.12,136.236.861,1.8,1.839.939,135.452,68.724-3.131-3.131,67.12,136.235,1.135,2.309,2.387,1.213L700.3,714.667l-3.914-3.914L763.5,846.988l1.409,2.857,2.9,1.487L903.26,920.057l-4.736-4.736,2.192,4.462Z" transform="translate(-93.186 224.259)"/><path class="h" d="M948.484,939.543,932.829,908.7l-1.6-3.17-3.092-1.526L791.9,836.887l4.305,4.305L727.439,705.739l-1.331-2.622-2.544-1.291-136.235-67.12,3.483,3.522L522.088,502.775l-1.057-2.074L519,499.684l-136.274-67.12,2.7,2.7L316.7,299.812l-.782-1.526-1.487-.744-136.274-67.12,1.917,1.879L111.347,96.848l-.509-1.018-.978-.47L76.789,79.08,74.01,84.637l32.836,16.711-1.487-1.526L172.478,236.1l.626,1.213,1.291.665L309.81,306.7l-2.27-2.309,67.12,136.274.861,1.761,1.839.939L512.773,512.09,509.681,509,576.8,645.234l1.135,2.27,2.387,1.214,135.414,68.724-3.875-3.875L778.943,849.8l1.409,2.818,2.935,1.487L918.7,922.831l-4.7-4.7,15.3,31.035Z" transform="translate(-83.148 195.967)"/><path class="h" d="M977.057,967.893l-28.609-56.318-1.6-3.17-3.092-1.526L807.516,839.72l4.305,4.344L743.1,708.611l-1.331-2.661-2.583-1.252-136.235-67.12,3.483,3.522L537.707,505.648l-1.056-2.113-2.035-.978L398.34,435.436l2.7,2.7L332.317,302.684l-.783-1.565-1.487-.744-136.274-67.12,1.917,1.918L126.965,99.72l-.509-1.018-1.018-.47L66.851,69.35,64.19,74.673l58.275,29.548-1.487-1.487L188.1,238.969l.587,1.252,1.291.626,135.453,68.764-2.309-2.309,67.12,136.235.861,1.761,1.84.939,135.453,68.725L525.3,511.87l67.12,136.235,1.1,2.309,2.387,1.213,135.453,68.724-3.914-3.914,67.12,136.235,1.37,2.857,2.935,1.487L934.32,925.743l-4.736-4.736,27.9,56.67Z" transform="translate(-73.289 167.617)"/><path class="h" d="M1005.562,996.2l-41.485-81.757-1.644-3.209-3.092-1.526L823.106,842.631l4.305,4.305L758.687,711.483l-1.37-2.661-2.544-1.252L618.5,640.45l3.522,3.522L553.3,508.52l-1.057-2.074-2.074-1.018L413.93,438.308l2.7,2.7L347.906,305.6l-.783-1.565-1.526-.744-136.235-67.12,1.879,1.879L142.555,102.631l-.548-1.018-.978-.509L56.924,59.62,54.38,64.669l83.674,42.424-1.487-1.487,67.12,136.235.626,1.252,1.252.626,135.453,68.724-2.309-2.27,67.12,136.235.861,1.8,1.84.9,135.452,68.724-3.131-3.092,67.12,136.235,1.135,2.309,2.387,1.213,135.453,68.724-3.914-3.914,67.081,136.275,1.409,2.818,2.935,1.487L949.87,928.615l-4.7-4.736,40.507,82.266Z" transform="translate(-63.401 139.267)"/><path class="h" d="M1034.038,1024.447,979.677,917.29l-1.644-3.209-3.092-1.526-136.235-67.12,4.305,4.344L774.287,714.326l-1.331-2.661-2.583-1.253L634.1,643.293l3.522,3.522L568.9,511.363l-1.057-2.074-2.035-1.017L429.53,441.151l2.7,2.7L363.506,308.4l-.783-1.526-1.526-.744-136.235-67.12,1.879,1.879L158.155,105.435l-.509-1.018-1.018-.47L46.928,49.9,44.58,54.636l109.035,55.34-1.487-1.526,67.12,136.235.626,1.252,1.292.665,135.453,68.724-2.309-2.309,67.12,136.274.861,1.761,1.839.939,135.414,68.724-3.092-3.131,67.12,136.275,1.135,2.309,2.387,1.213,135.414,68.724-3.914-3.914,67.12,136.235,1.409,2.857,2.9,1.487L965.47,931.5l-4.736-4.736,53.109,107.783Z" transform="translate(-53.523 110.946)"/><path class="h" d="M1062.514,1052.729l-67.276-132.6-1.6-3.17-3.131-1.526-136.235-67.12,4.3,4.305L789.847,717.208l-1.331-2.661-2.583-1.252L649.7,646.175l3.483,3.483L584.457,514.245l-1.057-2.113-2.035-.978L445.13,444.033l2.7,2.7L379.067,311.281l-.783-1.565-1.487-.744L240.522,241.891l1.918,1.878L173.716,108.317l-.509-1.018-.978-.47L36.972,40.18,34.78,44.563l134.474,68.216-1.487-1.487,67.12,136.235.626,1.252,1.252.626,135.453,68.763-2.309-2.309L437.029,452.1l.861,1.8,1.839.9,135.453,68.764-3.131-3.131L639.17,656.7l1.135,2.27,2.387,1.213L778.106,728.91,774.232,725l67.081,136.275,1.409,2.818,2.935,1.487L981.07,934.3l-4.7-4.7,65.672,133.34Z" transform="translate(-43.644 82.625)"/><path class="h" d="M1114.645,1103.093l-47.121-23.247,5.127,5.127-68.724-135.413-1.644-3.209-3.092-1.526L862.956,877.7l4.305,4.344L798.537,746.595l-1.331-2.661-2.583-1.252-136.235-67.12,3.483,3.522L593.147,543.631l-1.057-2.074-2.035-1.017L453.781,473.42l2.7,2.7L387.757,340.668l-.783-1.526-1.526-.744-136.235-67.12,1.879,1.879L182.367,137.7l-.509-.978-.94-.509L44.683,69.1l1.1,1.1L21.044,21.35,17.17,23.307,41.4,72.384l.352.7.7.391,135.492,68.685-1.487-1.487,67.12,136.235.587,1.252,1.292.626,135.452,68.764-2.309-2.309,67.12,136.274.861,1.761,1.839.9,135.453,68.763-3.131-3.131,67.12,136.275,1.135,2.27,2.387,1.213L786.8,758.336l-3.914-3.914L850,890.658l1.409,2.818,2.9,1.487L989.76,963.687l-4.7-4.7,67.081,136.236,1.683,3.366,3.444,1.761,46.847,23.8Z" transform="translate(-26.856 27.76)"/><path class="h" d="M1152.958,1140.723l-84.144-41.446,5.127,5.127-68.724-135.453-1.644-3.209-3.092-1.487-136.235-67.12,4.305,4.3L799.827,765.987l-1.37-2.661-2.544-1.252-136.275-67.12,3.522,3.522L594.436,563.024l-1.057-2.074-2.035-1.018L455.07,492.812l2.7,2.7L389.046,360.06l-.783-1.526-1.487-.744L250.5,290.671l1.879,1.879L183.656,157.1l-.509-.978-.978-.509L45.934,88.49l1.1,1.1L4.566,5.95,1.2,7.633,42.685,91.777l.352.7.7.391L179.194,161.6l-1.487-1.487,67.12,136.235.626,1.213,1.292.665,135.413,68.724-2.27-2.27,67.12,136.235.861,1.761,1.8.939,135.453,68.724-3.092-3.092,67.12,136.235,1.135,2.309L652.633,709l135.453,68.724-3.914-3.914,67.12,136.235,1.409,2.857,2.9,1.448,135.453,68.763-4.7-4.735,67.08,136.235,1.683,3.366,3.444,1.761,83.675,42.464Z" transform="translate(-2.668 -17.111)"/><path class="h" d="M1114.859,1102.73l-58.588-28.883,5.127,5.166L992.674,943.561l-1.6-3.209-3.131-1.526L851.7,871.706l4.344,4.344L787.284,740.6l-1.331-2.661-2.583-1.292-136.235-67.12,3.522,3.522L581.933,537.633l-1.057-2.113L578.8,534.5l-136.235-67.12,2.7,2.739L376.542,334.669l-.783-1.565-1.526-.783L238,265.2l1.918,1.957L171.191,131.706l-.509-1.018-1.018-.509L33.391,63.06l1.135,1.135L4.938,5.92,1.22,7.8,30.1,66.386l.352.744.744.391,135.413,68.724-1.487-1.526,67.12,136.274.587,1.252,1.331.665,135.414,68.724-2.309-2.348,67.12,136.275.9,1.761,1.84.939L572.54,546.987l-3.131-3.092,67.12,136.235,1.174,2.309,2.387,1.213L775.5,752.377l-3.914-3.914L838.709,884.7l1.409,2.857L843.054,889l135.414,68.763-4.7-4.736,67.081,136.236,1.683,3.365,3.483,1.761,58.235,29.548Z" transform="translate(35.353 -17.198)"/><path class="h" d="M1076.76,1064.748l-33.071-16.281,5.127,5.127L980.092,918.141l-1.6-3.17-3.092-1.526-136.274-67.12,4.344,4.3L774.7,715.177l-1.331-2.622-2.583-1.292-136.235-67.08,3.522,3.483L569.35,512.253l-1.1-2.113-2.035-1.018L429.984,442l2.7,2.7L363.96,309.289l-.783-1.566-1.526-.744L225.416,239.86l1.878,1.918L158.609,106.286l-.509-1.018-1.018-.47L20.847,37.679l1.1,1.1L5.31,5.9,1.24,7.935,17.56,40.967l.352.744.743.352,135.453,68.724-1.526-1.487,67.159,136.235.626,1.252,1.252.626,135.453,68.763-2.309-2.309L421.883,450.1l.861,1.8,1.839.9,135.453,68.724-3.092-3.092,67.08,136.235,1.135,2.309,2.387,1.213L763,726.918,759.086,723l67.081,136.274,1.409,2.818,2.935,1.487,135.453,68.724-4.736-4.7,67.12,136.235,1.644,3.366,3.483,1.761,32.836,16.672Z" transform="translate(73.375 -17.256)"/><path class="h" d="M1038.65,1026.7l-7.514-3.718,5.127,5.166L967.539,892.692l-1.644-3.209-3.092-1.526-136.235-67.12,4.305,4.344L762.148,689.728l-1.331-2.661-2.583-1.252L622,618.695l3.522,3.522L556.8,486.765l-1.1-2.113-2.035-1.018-136.274-67.12,2.739,2.74L351.407,283.8l-.783-1.565-1.526-.744-136.235-67.12,1.918,1.918L146.056,80.837l-.548-1.018-.978-.509L8.255,12.23l1.1,1.1L5.555,5.89,1.25,8l3.718,7.553.352.7.744.391L141.477,85.416l-1.526-1.526,67.12,136.235.626,1.252,1.292.665,135.453,68.724-2.309-2.309,67.12,136.235.861,1.8,1.839.939L547.4,496.157l-3.131-3.131,67.12,136.235,1.135,2.309,2.387,1.213,135.453,68.724-3.953-3.914,67.12,136.235,1.409,2.857,2.935,1.487L953.332,906.9l-4.736-4.736,67.12,136.236,1.644,3.366,3.483,1.8,7.475,3.757Z" transform="translate(111.445 -17.286)"/><path class="h" d="M976.151,967.808l-50.526-99.6-1.644-3.209-3.092-1.526L784.616,796.388l4.344,4.305L720.236,665.28l-1.37-2.661-2.583-1.291L580.047,594.246l3.522,3.483L514.806,462.316l-1.057-2.113-2.035-1.018L375.479,392.1l2.7,2.7L309.416,259.353l-.783-1.565-1.487-.744L170.871,189.963l1.879,1.879L104.026,56.389l-.509-.978-.978-.509L2.387,5.55,0,10.325,99.6,60.85l-1.487-1.487L165.236,195.6l.587,1.252,1.291.626,135.453,68.763-2.309-2.309,67.12,136.275.861,1.761,1.839.939,135.414,68.724-3.092-3.092,67.12,136.235,1.135,2.309L573,608.3l135.453,68.724-3.914-3.914,67.12,136.235,1.37,2.857,2.935,1.487,135.453,68.724-4.736-4.735,49.352,100.19Z" transform="translate(178.836 -18.276)"/><path class="h" d="M899.709,891.792l-24.774-48.8-1.644-3.209-3.092-1.526-136.275-67.12,4.344,4.344L669.545,640.064l-1.37-2.661-2.583-1.291L529.357,569.031l3.522,3.483L464.155,437.1l-1.1-2.113-2.035-1.018L324.789,366.889l2.7,2.7L258.726,234.137l-.783-1.566-1.487-.744L120.181,164.747l1.918,1.879L53.374,31.173l-.548-.978-.978-.509L2.81,5.46.07,10.939l48.8,24.7-1.487-1.487,67.12,136.275.626,1.213,1.291.665,135.413,68.724-2.27-2.309,67.08,136.274.9,1.761,1.8.939L454.8,446.415l-3.092-3.092,67.08,136.235,1.135,2.309,2.387,1.213,135.453,68.724-3.953-3.914,67.12,136.274,1.409,2.818,2.935,1.487,135.414,68.763-4.736-4.775,24.187,49.116Z" transform="translate(255.004 -18.538)"/><path class="h" d="M822.647,811.373,687.39,744.762l4.344,4.305L622.971,613.654l-1.331-2.661-2.583-1.252L482.822,542.62l3.483,3.522L417.581,410.69l-1.057-2.074-2.035-1.018L278.214,340.517l2.7,2.661L212.19,207.765l-.822-1.565-1.487-.744L73.646,138.337l1.879,1.879L7.309,5.78,1.36,8.754,68.01,144.011l.587,1.213,1.291.665,135.453,68.724-2.309-2.309,67.12,136.275.861,1.761,1.839.939L408.266,420l-3.092-3.092,67.081,136.235,1.135,2.309,2.387,1.213L611.23,625.395l-3.953-3.914L674.4,757.756l1.409,2.818,2.935,1.487,134.435,68.255Z" transform="translate(327.018 -17.606)"/><path class="h" d="M784.547,773.39l-109.7-54.048,4.305,4.344L610.428,588.234l-1.331-2.661-2.583-1.252L470.239,517.2l3.522,3.522L405.037,385.27l-1.057-2.113-2.035-.978-136.274-67.12,2.74,2.7L199.647,182.306l-.783-1.526-1.526-.744L61.1,112.917l1.879,1.879L7.681,5.76,1.38,8.891l54.048,109.7.587,1.252,1.292.665,135.453,68.724-2.309-2.309L257.57,323.16l.861,1.8,1.839.939,135.453,68.724-3.131-3.131,67.12,136.274,1.135,2.309,2.387,1.174,135.414,68.763-3.914-3.953,67.12,136.275,1.409,2.818,2.935,1.487,109.035,55.34Z" transform="translate(365.039 -17.664)"/><path class="h" d="M746.409,735.407l-84.183-41.446,4.344,4.305L597.806,562.814l-1.331-2.622-2.583-1.292L457.658,491.82l3.522,3.483L392.456,359.889l-1.1-2.113-2.035-1.018-136.235-67.12,2.7,2.7L187.065,156.926l-.783-1.565-1.526-.744L48.521,87.5,50.4,89.375,7.936,5.74,1.4,9.028,42.846,93.172l.587,1.252,1.291.665,135.453,68.724-2.309-2.309,67.12,136.235.861,1.8,1.839.939L383.141,369.2l-3.131-3.131,67.12,136.274,1.135,2.309,2.387,1.174,135.414,68.763-3.914-3.914,67.12,136.235,1.409,2.818,2.935,1.487,83.635,42.464Z" transform="translate(403.099 -17.723)"/><path class="h" d="M708.31,697.386,649.722,668.5l4.305,4.344L585.3,537.394l-1.37-2.661-2.544-1.252-136.275-67.12,3.522,3.522L379.913,334.47l-1.057-2.113-2.074-1.018-136.235-67.12,2.7,2.7L174.522,131.506l-.783-1.565-1.526-.744L35.978,62.077l1.879,1.918L8.308,5.72,1.42,9.164,30.264,67.791,30.89,69l1.291.665L167.6,138.394l-2.27-2.309,67.081,136.274.9,1.761,1.8.939,135.453,68.724-3.092-3.092,67.081,136.235,1.135,2.309,2.387,1.213,135.453,68.724-3.914-3.914L636.689,681.5l1.409,2.857,2.935,1.487,58.275,29.548Z" transform="translate(441.12 -17.781)"/><path class="h" d="M670.171,659.4,637.1,643.122l4.305,4.3L572.681,512.013l-1.331-2.661-2.583-1.252L432.532,440.98l3.483,3.522L367.291,309.05l-1.057-2.113-2.035-.978-136.235-67.12,2.7,2.7L161.9,106.086l-.783-1.565-1.487-.7L23.357,36.7l1.918,1.879L8.563,5.7,1.44,9.3,17.682,42.332l.626,1.252,1.291.665,135.413,68.724-2.27-2.309,67.12,136.275.861,1.761,1.839.939,135.413,68.724-3.092-3.092L422,451.508l1.135,2.309,2.348,1.213L560.94,523.755l-3.914-3.914,67.12,136.235,1.37,2.857,2.935,1.487,32.875,16.672Z" transform="translate(479.18 -17.839)"/><path class="h" d="M632.111,621.42,624.6,617.7l4.305,4.344L560.178,486.594l-1.331-2.661-2.583-1.252L420.029,415.56l3.483,3.522L354.788,283.63l-1.057-2.113-2.035-.978-136.274-67.12,2.74,2.7L149.4,80.666l-.783-1.566-1.487-.744L10.853,11.277l1.918,1.879L8.974,5.68,1.46,9.437l3.718,7.514L5.8,18.2l1.253.626L142.509,87.593,140.2,85.284,207.32,221.52l.9,1.761,1.8.939,135.453,68.724-3.092-3.092L409.5,426.088l1.135,2.309,2.348,1.213,135.453,68.724-3.914-3.914,67.12,136.235,1.409,2.857,2.9,1.487,7.475,3.757Z" transform="translate(517.162 -17.897)"/><path class="h" d="M568.218,562.292l-50.526-99.6-1.37-2.622-2.544-1.291L377.5,391.656l3.522,3.522L312.3,259.725l-1.057-2.074-2.035-1.018-136.275-67.12,2.7,2.7L106.911,56.762l-.783-1.526-1.526-.744L4.451,5.14.42,13.124l99.6,50.565L97.714,61.38l67.12,136.235.861,1.761,1.839.939L302.987,269.04l-3.092-3.092,67.081,136.235,1.135,2.309,2.387,1.213L505.951,474.43l-3.914-3.914,49.352,100.19Z" transform="translate(585.126 -19.471)"/><path class="h" d="M491.736,486.248l-24.774-48.8-1.37-2.661-2.544-1.252-136.275-67.12,3.522,3.522L261.572,234.519l-1.1-2.113-2.035-1.018-136.235-67.12,2.7,2.7L56.182,31.556,55.4,29.99l-1.526-.744L4.8,5.06.49,13.67l48.8,24.774-2.309-2.309L114.1,172.37l.861,1.8,1.839.9,135.453,68.763-3.131-3.131,67.12,136.275,1.135,2.27,2.387,1.213,135.414,68.763-3.914-3.914,24.187,49.077Z" transform="translate(661.334 -19.704)"/><path class="h" d="M416.147,406.1,280.89,339.486l3.522,3.483L215.649,207.555l-1.057-2.113-2.035-.978L76.282,137.344l2.7,2.7L10.806,5.57,1.57,10.188,68.22,145.406l.9,1.761,1.8.939,135.453,68.724-3.131-3.092,67.12,136.274,1.135,2.309,2.387,1.174,134.435,68.255Z" transform="translate(732.696 -18.218)"/><path class="h" d="M378.008,368.114l-109.7-54.048,3.483,3.522L203.067,182.136l-1.057-2.113-2.035-.978L63.739,111.924l2.7,2.7L11.1,5.55,1.59,10.325,55.6,120.025l.9,1.761,1.839.939L193.752,191.45l-3.092-3.092,67.12,136.235,1.135,2.309,2.387,1.213,109.035,55.3Z" transform="translate(770.756 -18.276)"/><path class="h" d="M339.87,330.063l-84.144-41.446,3.522,3.522L190.484,156.686l-1.057-2.113-2.035-.978L51.118,86.475l2.7,2.7L11.355,5.54,1.61,10.432,43.056,94.576l.861,1.761,1.839.939L181.17,166l-3.092-3.092,67.081,136.235,1.135,2.309,2.387,1.213,83.635,42.464Z" transform="translate(808.816 -18.305)"/><path class="h" d="M301.81,292.109l-58.588-28.883,3.483,3.522L177.981,131.3l-1.057-2.113-2.035-1.018L38.654,61.045l2.7,2.74L11.806,5.51,1.63,10.6,30.513,69.186l.861,1.8,1.839.939L168.666,140.65l-3.131-3.131,67.12,136.235,1.135,2.309,2.387,1.213,58.275,29.548Z" transform="translate(846.798 -18.393)"/><path class="h" d="M263.632,254.058,230.6,237.777l3.483,3.522L165.359,105.847l-1.057-2.074-2.074-1.018L25.993,35.675l2.7,2.661L11.982,5.5,1.65,10.666,17.931,43.737l.861,1.761,1.8.939,135.453,68.724-3.131-3.092,67.12,136.274,1.135,2.309,2.387,1.213,32.836,16.672Z" transform="translate(884.897 -18.422)"/><path class="h" d="M225.572,216.075l-7.514-3.718,3.522,3.522L152.856,80.466l-1.1-2.113-2.035-1.018L13.489,10.255l2.7,2.7-3.8-7.475L1.67,10.8l3.718,7.514.861,1.8,1.839.9L143.5,89.781,140.41,86.65l67.12,136.275,1.135,2.309,2.387,1.213,7.436,3.8Z" transform="translate(922.879 -18.48)"/><path class="h" d="M160.274,156.738,109.748,57.173l-1.1-2.113-2.035-1.018L6.427,4.73.83,15.923l99.564,50.565L97.3,63.357l49.312,100.19Z" transform="translate(991.465 -20.665)"/><path class="h" d="M83.792,80.732l-24.813-48.8-1.057-2.113-2.035-.978L6.771,4.65.9,16.469,49.665,41.243l-3.092-3.092L70.72,87.229Z" transform="translate(1067.673 -20.899)"/></g></g></g></g></g></svg>