<svg xmlns="http://www.w3.org/2000/svg" xmlns:xlink="http://www.w3.org/1999/xlink" width="346" height="689" viewBox="0 0 346 689"><defs><style>.a{fill:#e8f0f7;}.b,.c{fill:#fff;}.b{stroke:#707070;}.d{clip-path:url(#a);}.e{opacity:0.148;}.f{opacity:0.15;clip-path:url(#b);}.g{clip-path:url(#c);}.h{fill:#051b2e;}</style><clipPath id="a"><rect class="a" width="346" height="689" transform="translate(1258.421 5269)"/></clipPath><clipPath id="b"><ellipse class="b" cx="353.5" cy="354" rx="353.5" ry="354" transform="translate(0.3 -0.314)"/></clipPath><clipPath id="c"><rect class="c" width="1061" height="1060" transform="translate(0.021 0.422)"/></clipPath></defs><g class="d" transform="translate(-1258.421 -5269)"><g class="e" transform="translate(1122.121 5249.314)"><g class="f" transform="translate(0 0)"><g transform="translate(-323.721 -148.737)"><g class="g" transform="translate(0 0)"><path class="h" d="M293.02,306.814l2.132-4.153.955-1.984,1.948-.956,7.056-3.491,5.806,11.65-7.019,3.528,2.9-2.9-2.058,4.189Z" transform="translate(760.301 760.468)"/><path class="h" d="M283.1,333.733l14.663-29,.992-1.948,1.911-.956,31.053-15.324,5.659,11.319-30.869,15.655,2.9-2.9-14.369,29.105Z" transform="translate(733.766 734.468)"/><path class="h" d="M273.27,359.723,300.1,306.841l1.029-1.984,1.911-.956L358.05,276.78l5.549,11.1-54.72,27.746,2.94-2.94-26.2,53.213Z" transform="translate(707.472 708.441)"/><path class="h" d="M263.47,385.687l38.954-76.769,1.029-1.948,1.911-.956,79.011-38.954,5.365,10.768-78.569,39.836,2.94-2.9-38.072,77.21Z" transform="translate(681.258 682.441)"/><path class="h" d="M253.68,411.677l51.045-100.619.992-1.948,1.911-.955L410.6,257.33l5.255,10.547-102.42,51.89,2.9-2.9L266.469,418.071Z" transform="translate(655.07 656.414)"/><path class="h" d="M243.87,437.576l63.135-124.469,1.029-1.985,1.911-.956L436.914,247.62l5.108,10.18L315.788,321.853l2.9-2.9-61.7,125.2Z" transform="translate(628.829 630.44)"/><path class="h" d="M225.84,484.1l44.246-21.792-3.271,3.307,64.532-127.189.992-1.985,1.911-.919L462.174,272.5l-2.536,2.536,23.226-45.826,9.665,4.814-22.748,46.083-.809,1.654-1.727.882L340.093,347.175l2.9-2.9L279.972,472.2l-1.066,2.168-2.242,1.1-43.952,22.343Z" transform="translate(580.601 581.195)"/><path class="h" d="M206.27,536.016l92.277-45.5-3.307,3.307,64.531-127.189.992-1.984,1.911-.919L490.6,300.674l-2.536,2.573,47.443-93.527,9.077,4.557-46.341,94.041-.809,1.69-1.727.882L368.518,375.385l2.94-2.9L308.4,500.406l-1.066,2.168-2.205,1.139-91.763,46.524Z" transform="translate(528.252 529.061)"/><path class="h" d="M188.48,583.521l2.131-4.19,1.249-2.462,2.425-1.176L322.21,512.669,318.9,515.94l64.531-127.189.992-1.984,1.911-.919,127.924-63.025-2.536,2.536,64.532-127.189.735-1.47,1.434-.7,7.056-3.491,4.3,8.636-7.019,3.565,2.2-2.2L521.906,330.43l-.809,1.69L519.37,333,392.181,397.534l2.94-2.94L332.1,522.518l-1.1,2.168-2.2,1.139L201.6,590.357l3.675-3.675-2.058,4.189Z" transform="translate(480.666 483.025)"/><path class="h" d="M178.55,610.377l14.7-28.995,1.249-2.462,2.426-1.176,127.924-63.025-3.271,3.271L386.11,390.837l.992-1.985,1.911-.919,127.924-63.025-2.536,2.536,64.568-127.189.735-1.47,1.4-.661L612.154,182.8l4.116,8.232L585.4,206.687l2.132-2.131L524.544,332.479l-.845,1.654-1.691.882L394.819,399.547l2.9-2.9L334.7,524.567l-1.066,2.168-2.2,1.14L204.238,592.407l3.675-3.675L193.58,617.873Z" transform="translate(454.104 457.052)"/><path class="h" d="M168.74,636.4l26.827-52.882,1.286-2.462,2.389-1.213,127.924-63.025-3.271,3.308L388.427,392.94l.992-1.984,1.911-.919,127.924-63.025-2.536,2.536L581.25,202.359l.735-1.47,1.433-.7,55.014-27.121,4.006,8.011-54.719,27.746,2.168-2.168L526.861,334.583l-.808,1.69-1.727.845L397.136,401.65l2.9-2.9L337.015,526.671l-1.066,2.169-2.2,1.139L206.555,594.51l3.675-3.675-26.2,53.213Z" transform="translate(427.863 431.025)"/><path class="h" d="M158.92,662.357l38.954-76.732,1.286-2.5,2.425-1.213L329.51,518.888,326.2,522.2l64.531-127.152,1.029-1.984,1.911-.956L521.6,329.079l-2.536,2.536,64.531-127.152.735-1.47,1.433-.7,79.011-38.954,3.859,7.754L590.1,210.967l2.168-2.168L529.242,336.723l-.845,1.654-1.69.882L399.517,403.79l2.94-2.9L339.432,528.811l-1.066,2.168-2.242,1.139L208.936,596.65l3.675-3.675-38.036,77.21Z" transform="translate(401.595 404.998)"/><path class="h" d="M149.13,688.321,200.175,587.7l1.249-2.5,2.426-1.176L331.774,521l-3.271,3.307L393.034,397.12l.992-1.984,1.911-.919L523.9,331.192l-2.536,2.536,64.532-127.189.735-1.433,1.4-.7L691.034,153.62l3.712,7.46L592.362,213.007l2.131-2.168L531.505,338.8l-.845,1.654-1.69.882L401.781,405.866l2.9-2.9L341.659,530.887l-1.066,2.168-2.2,1.139L211.2,598.726l3.675-3.675L165.006,696.259Z" transform="translate(375.408 378.998)"/><path class="h" d="M139.33,714.311,202.5,589.8l1.249-2.462,2.389-1.176L334.1,523.142l-3.307,3.271,64.531-127.189.992-1.948,1.911-.956L526.189,333.3l-2.536,2.536,64.531-127.189.735-1.433,1.4-.735L717.321,143.89l3.6,7.2-126.27,64.054,2.168-2.168L533.8,340.9l-.845,1.691-1.691.845L404.071,407.97l2.9-2.9L343.949,532.991l-1.066,2.168-2.2,1.139L213.49,600.829l3.675-3.675-61.7,125.2Z" transform="translate(349.193 352.971)"/><path class="h" d="M121.51,760.637l44.246-21.829-4.042,4.042L226.245,615.7l1.249-2.5,2.425-1.176L357.844,549l-3.271,3.271,64.532-127.152.992-1.984,1.911-.919,127.924-63.025-2.5,2.536,64.532-127.189.735-1.47,1.4-.662L742.02,169.379l-1.764,1.764L751.8,148.175l11.686-22.895,6.578,3.307-11.282,23.079-11.429,23-.588,1.139-1.213.625L618.4,240.966l2.131-2.132L557.5,366.759l-.808,1.654-1.691.882L427.815,433.826l2.9-2.9L367.693,558.847l-1.066,2.168-2.2,1.139L237.233,626.686l3.675-3.675L177.883,750.935l-1.323,2.646-2.719,1.4-43.989,22.343Z" transform="translate(301.526 303.191)"/><path class="h" d="M101.93,812.514l92.277-45.459-4.042,4.042L254.7,643.908l1.249-2.5,2.425-1.176L386.3,577.209l-3.271,3.307,64.532-127.189.992-1.984,1.911-.956,127.924-63.025-2.536,2.536,64.532-127.152.735-1.47,1.433-.7,127.924-63.025-1.764,1.764,47.406-93.527,6.1,3.05-46.377,94.078-.588,1.139-1.213.625L646.847,269.214l2.168-2.168L585.99,394.969l-.809,1.69-1.727.882L456.266,462.037l2.94-2.9L396.181,587.057l-1.066,2.168-2.242,1.139L265.684,654.9l3.675-3.675L206.334,779.145l-1.323,2.683-2.719,1.36-91.726,46.561Z" transform="translate(249.151 251.056)"/><path class="h" d="M83.93,860.192,86.062,856l1.507-2.976,2.94-1.433,127.924-63.025-4.079,4.042,64.532-127.189,1.286-2.462,2.425-1.213L410.52,598.722l-3.307,3.308L471.744,474.84l.992-1.984,1.911-.919,127.961-63.025-2.572,2.536,64.531-127.189.772-1.47,1.433-.7L794.7,219.066l-1.8,1.8L857.464,93.714l.478-.955.919-.441,7.019-3.528,2.83,5.623-7.056,3.528,1.433-1.433L800.1,224.468l-.588,1.176-1.213.625L671.109,290.8l2.168-2.168L610.252,416.556l-.809,1.69-1.727.882L480.527,483.66l2.94-2.94L420.442,608.644l-1.066,2.168-2.242,1.139L289.946,676.483l3.675-3.675L230.6,800.732l-1.323,2.683-2.72,1.4L99.365,869.343l4.447-4.447-2.058,4.189Z" transform="translate(201.003 205.583)"/><path class="h" d="M74.01,887.048l14.7-28.958,1.507-2.977,2.9-1.433,127.924-63.025L217,794.7,281.57,667.508l1.249-2.462,2.389-1.213,127.924-63.025-3.271,3.307,64.532-127.189.992-1.948,1.911-.956L605.256,411l-2.535,2.536,64.531-127.189.735-1.433,1.4-.7,127.961-63.025-1.8,1.764L860.075,95.764l.478-.955.919-.441L892.524,79.08l2.609,5.218L864.3,99.99l1.4-1.433L802.673,226.518l-.588,1.139-1.213.625L673.72,292.813l2.131-2.168L612.827,418.606l-.809,1.654-1.727.882L483.139,485.673l2.9-2.9L423.017,610.694l-1.066,2.131-2.242,1.139L292.557,678.5l3.638-3.638L233.207,802.782l-1.323,2.646-2.756,1.4L101.976,871.356l4.41-4.41L92.017,896.088Z" transform="translate(174.468 179.609)"/><path class="h" d="M64.19,913.075l26.864-52.882,1.507-2.977,2.9-1.433,127.924-63.062-4.042,4.079,64.531-127.189,1.249-2.5,2.426-1.176,127.924-63.025-3.271,3.307L476.737,479.03l.992-1.984,1.911-.919L607.6,413.1l-2.536,2.536L669.6,288.449l.735-1.47,1.4-.7,127.961-63.025-1.8,1.8L862.419,97.867l.478-.955.956-.441L918.866,69.35l2.5,5-54.72,27.746,1.4-1.4L805.017,228.621l-.551,1.176-1.213.588L676.064,294.953l2.168-2.168L615.207,420.709l-.808,1.654-1.727.882L485.483,487.776l2.9-2.9L425.361,612.8l-1.029,2.168L422.09,616.1,294.9,680.636l3.675-3.675L235.552,804.885l-1.286,2.683-2.756,1.4L104.32,873.5l4.447-4.447-26.2,53.213Z" transform="translate(148.2 153.582)"/><path class="h" d="M54.38,939.065,93.334,862.3l1.543-3.013,2.9-1.433L225.7,794.861l-4.042,4.042,64.532-127.189,1.286-2.5,2.389-1.176,127.961-63.025-3.307,3.307,64.532-127.189.992-1.948,1.948-.955,127.924-63.025-2.536,2.536,64.531-127.152.735-1.47,1.433-.7L802.006,225.4l-1.764,1.764,64.495-127.152.514-.955.919-.478L945.144,59.62l2.389,4.741L868.963,104.2l1.4-1.4L807.334,230.724l-.588,1.176-1.176.588L678.381,297.02l2.168-2.132L617.525,422.812l-.808,1.69-1.727.845L487.8,489.879l2.94-2.9L427.715,614.9l-1.066,2.168-2.242,1.139L297.219,682.739l3.675-3.675L237.906,807.025l-1.323,2.646-2.756,1.4L106.674,875.6l4.41-4.447L73.049,948.4Z" transform="translate(121.959 127.555)"/><path class="h" d="M44.58,964.991,95.625,864.372l1.543-3.013,2.9-1.433L228,796.9l-4.042,4.079,64.532-127.189,1.249-2.5,2.426-1.176L420.12,607.091l-3.307,3.307L481.344,483.21l.992-1.948,1.911-.955,127.961-63.025-2.536,2.536L674.2,292.628l.735-1.433,1.433-.7L804.3,227.472l-1.764,1.764,64.495-127.189.478-.956.956-.441L971.468,49.9l2.2,4.447L871.29,106.31l1.4-1.433L809.661,232.8l-.588,1.176-1.213.625L680.672,299.133l2.168-2.168L619.815,424.925l-.809,1.654-1.727.882L490.127,491.993l2.9-2.94L430.005,617.014l-1.066,2.168-2.242,1.139L299.546,684.853l3.675-3.675L240.2,809.1l-1.323,2.683-2.72,1.4L108.965,877.712l4.447-4.447L63.543,974.473Z" transform="translate(95.745 101.555)"/><path class="h" d="M34.78,990.955,97.952,866.449l1.507-2.977,2.94-1.433,127.924-63.025-4.042,4.043L290.812,675.9l1.249-2.5,2.425-1.176L422.41,609.2l-3.271,3.271,64.532-127.152.992-1.984,1.911-.919L614.5,419.395l-2.536,2.536,64.568-127.189.735-1.47,1.4-.7,127.961-62.988-1.8,1.764L869.354,104.16l.478-.955.919-.441L997.756,40.18l2.058,4.116L873.544,108.35l1.4-1.4L811.915,234.877l-.588,1.176-1.176.588L682.962,301.21l2.168-2.168L622.106,426.965l-.808,1.69-1.727.845L492.381,494.069l2.94-2.94L432.3,619.09l-1.066,2.131-2.242,1.139L301.836,686.892l3.638-3.675L242.486,811.178l-1.323,2.646-2.756,1.4L111.255,879.752l4.41-4.41L54,1000.547Z" transform="translate(69.531 75.555)"/><path class="h" d="M17.17,1037.1l44.246-21.829-4.814,4.814L121.133,892.93l1.543-3.013,2.9-1.433L253.5,825.459l-4.042,4.079,64.532-127.189,1.249-2.5,2.426-1.176,127.924-63.025-3.271,3.307,64.531-127.189.992-1.948,1.911-.955L637.717,445.84l-2.536,2.536,64.532-127.189.735-1.433,1.433-.7L829.8,256.03l-1.764,1.764,64.531-127.189.478-.919.882-.478,127.924-63.025-1.029,1.029,23.225-45.863,3.638,1.837-22.748,46.083-.331.661-.662.368L896.725,134.795l1.4-1.4L835.1,261.322l-.551,1.176-1.213.588L706.144,327.655l2.168-2.168L645.287,453.447l-.809,1.654-1.727.845L515.563,520.514l2.94-2.94L455.478,645.535l-1.066,2.131-2.242,1.139L325.018,713.374l3.675-3.675L265.668,837.623l-1.323,2.646-2.719,1.4L134.437,906.2l4.41-4.41L75.858,1029.711l-1.58,3.161-3.234,1.654-43.989,22.344Z" transform="translate(22.425 25.186)"/><path class="h" d="M1.2,1071.493l79.011-38.917L75.4,1037.39,139.928,910.2l1.543-3.013,2.9-1.4L272.3,842.766l-4.042,4.042,64.532-127.189,1.286-2.5,2.389-1.176,127.961-63.025-3.307,3.307,64.532-127.189.992-1.948,1.911-.955L656.511,463.11l-2.536,2.536,64.531-127.189.735-1.433,1.4-.7L848.6,273.3l-1.764,1.764,64.531-127.189.478-.919.919-.478,127.924-63.025-1.029,1.029L1079.531,5.95l3.161,1.58-38.954,79.011-.331.661-.662.367L915.557,152.1l1.4-1.4L853.928,278.629l-.588,1.139-1.213.625L724.975,344.925l2.131-2.131L664.082,470.717l-.809,1.654-1.69.882L534.394,537.784l2.9-2.9L474.272,662.8l-1.066,2.168-2.2,1.139L343.813,730.644l3.675-3.675L284.463,854.893l-1.323,2.683-2.719,1.36L153.231,923.5l4.41-4.447L94.653,1046.981l-1.58,3.16-3.234,1.654-78.57,39.873Z" transform="translate(-20.293 -16.007)"/><path class="h" d="M1.22,1035.816,56.234,1008.7l-4.814,4.851,64.532-127.189,1.507-3.014,2.94-1.433,127.924-63.025-4.079,4.079,64.568-127.189,1.25-2.5,2.425-1.213L440.41,629.039l-3.307,3.307,64.532-127.152.992-1.984,1.948-.956L632.5,439.23l-2.536,2.572,64.532-127.189.735-1.47,1.433-.735,127.924-63.025-1.8,1.837,64.532-127.189.478-.955.956-.478,127.96-63.025-1.065,1.066,27.782-54.72,3.491,1.764L1019.8,62.7l-.331.7-.7.368L891.616,128.295l1.4-1.433L829.988,254.822,829.437,256l-1.25.625L701.035,321.155l2.168-2.2L640.178,446.91l-.845,1.654-1.727.882L510.453,513.978l2.94-2.9L450.369,639l-1.1,2.168-2.242,1.139L319.872,706.837l3.675-3.675L260.522,831.087l-1.323,2.683-2.756,1.359L129.291,899.7l4.41-4.447L70.713,1023.175l-1.58,3.16-3.271,1.654-54.683,27.746Z" transform="translate(-20.24 -16.088)"/><path class="h" d="M1.24,1000.149l31.053-15.288-4.814,4.814L92.01,862.487l1.507-2.977,2.9-1.433,127.961-63.025-4.079,4.042L284.87,671.906l1.25-2.462,2.425-1.213,127.924-62.988-3.307,3.271,64.532-127.152,1.029-1.984,1.911-.956L608.557,415.4l-2.536,2.536L670.553,290.78l.735-1.47,1.433-.7,127.924-63.025-1.764,1.8,64.495-127.226.478-.955.956-.441L992.733,35.74,991.7,36.769,1007.323,5.9l3.822,1.911L995.82,38.827l-.331.7-.7.331L867.6,104.388l1.433-1.4L805.974,230.915l-.588,1.176-1.176.588L677.021,297.248l2.168-2.168L616.164,423l-.809,1.69-1.727.845L486.44,490.07l2.9-2.9L426.355,615.091l-1.066,2.168-2.242,1.139L295.858,682.93l3.675-3.675L236.545,807.216l-1.323,2.646-2.756,1.4L105.277,875.79l4.447-4.41L46.7,999.3l-1.543,3.16-3.271,1.654-30.833,15.655Z" transform="translate(-20.186 -16.141)"/><path class="h" d="M1.25,964.419l7.056-3.491-4.814,4.851L68.023,838.59l1.543-3.014,2.9-1.433,127.924-63.025-4.042,4.079,64.532-127.189,1.249-2.5,2.426-1.176,127.924-63.025-3.307,3.307,64.532-127.189,1.029-1.985,1.911-.955,127.961-63.025-2.572,2.572,64.531-127.189.735-1.47,1.433-.7,127.924-63.025-1.8,1.8L839.389,76.265l.514-.955.919-.478L968.783,11.843l-1.029,1.029,3.565-6.982,4.042,1.984-3.491,7.093-.331.661-.7.367L843.688,80.564l1.433-1.433L782.1,207.055l-.588,1.176-1.213.625L653.107,273.387l2.168-2.168L592.25,399.143l-.808,1.69-1.727.882L462.526,466.247l2.94-2.94L402.441,591.231l-1.066,2.168-2.242,1.139L271.945,659.07l3.712-3.675L212.631,783.319,211.308,786l-2.756,1.4L81.363,851.93l4.447-4.447L22.785,975.407l-1.543,3.16-3.271,1.69-7.019,3.528Z" transform="translate(-20.159 -16.168)"/><path class="h" d="M0,909.1l47.443-93.527,1.543-3.013,2.9-1.433,127.961-62.988-4.079,4.043L240.3,625.031l1.286-2.5,2.425-1.213,127.924-62.988-3.307,3.271L433.2,434.45l.992-1.984,1.911-.956,127.924-62.988-2.536,2.536,64.568-127.189.735-1.47,1.4-.7,127.961-62.988-1.764,1.764L818.919,53.287l.478-.919.919-.478L914.357,5.55l2.242,4.483L823.072,57.477l1.4-1.4L761.443,184l-.551,1.176-1.213.588L632.49,250.336l2.168-2.168L571.634,376.129l-.808,1.654-1.727.882L441.946,443.2l2.9-2.9L381.824,568.217l-1.066,2.168-2.2,1.139L251.364,636.056l3.675-3.675L192.014,760.3l-1.286,2.683-2.756,1.4L60.783,828.915l4.447-4.447L18.889,918.547Z" transform="translate(-23.503 -17.077)"/><path class="h" d="M.07,837.719l23.262-45.826,1.543-3.013,2.9-1.433L155.74,724.421,151.66,728.5l64.532-127.152,1.286-2.5,2.425-1.213,127.924-62.988-3.307,3.271,64.532-127.152,1.029-1.984,1.911-.956,127.924-62.988-2.536,2.536,64.568-127.189.735-1.47,1.4-.7L732.04,155.029l-1.8,1.764L794.771,29.6l.514-.919.919-.478L842.251,5.46l2.572,5.145L799,33.794l1.4-1.4L737.369,160.358l-.588,1.139-1.213.625L608.416,226.653l2.131-2.168L547.56,352.446l-.845,1.654-1.691.882L417.835,419.513l2.9-2.9L357.75,544.534l-1.066,2.168-2.242,1.139L227.254,612.373l3.712-3.675L167.94,736.659l-1.323,2.646-2.756,1.4L36.709,805.269l4.447-4.483-22.711,46.12Z" transform="translate(-23.316 -17.318)"/><path class="h" d="M1.36,762.226l127.005-62.547-4.079,4.042,64.568-127.152,1.249-2.5,2.425-1.176,127.924-63.025-3.271,3.307,64.531-127.189.992-1.948,1.911-.956L512.578,320.1l-2.536,2.5,64.532-127.152.772-1.47,1.4-.7L704.666,130.25l-1.764,1.764L766.956,5.78l5.586,2.793L709.958,135.578l-.551,1.139-1.213.625L581,201.874l2.168-2.168L520.148,327.666l-.808,1.654-1.727.882L390.46,394.733l2.9-2.9L330.375,519.754l-1.066,2.168-2.242,1.139L199.879,587.593l3.712-3.675L140.566,711.879l-1.323,2.646-2.756,1.4L10.253,780.012Z" transform="translate(-19.865 -16.462)"/><path class="h" d="M1.38,726.559l103.008-50.751-4.042,4.079L164.877,552.7l1.249-2.5,2.425-1.176L296.513,486l-3.307,3.307,64.532-127.189.992-1.984,1.911-.919L488.6,296.189l-2.572,2.536L550.6,171.536l.735-1.433,1.433-.7,127.924-63.025-1.764,1.764L730.851,5.76l5.917,2.94L686.017,111.708l-.551,1.176-1.213.625L557.064,178.04l2.168-2.168L496.208,303.8l-.808,1.69-1.727.882L366.483,370.9l2.94-2.94L306.4,495.921l-1.066,2.168-2.242,1.1L175.939,563.76l3.675-3.712L116.589,688.009l-1.323,2.646-2.756,1.4L10.126,744.015Z" transform="translate(-19.812 -16.516)"/><path class="h" d="M1.4,690.892l79.048-38.917-4.079,4.043,64.568-127.189,1.249-2.462,2.425-1.213,127.924-62.988-3.307,3.271L333.76,338.283l1.029-1.984,1.911-.955,127.924-63.025-2.536,2.536L526.619,147.7l.735-1.47,1.433-.7L656.712,82.509l-1.764,1.764L694.821,5.74l6.137,3.087L662.04,87.838l-.551,1.176-1.213.625L533.087,154.17,535.256,152,472.231,279.926l-.809,1.69-1.727.882L342.506,347.03l2.94-2.94L282.421,472.05l-1.066,2.168-2.242,1.1L151.961,539.889l3.675-3.675L92.612,664.138l-1.323,2.646-2.756,1.4L10,708.054Z" transform="translate(-19.758 -16.569)"/><path class="h" d="M1.42,655.188l55.014-27.121-4.042,4.079,64.532-127.189,1.286-2.5,2.389-1.176,127.961-63.025-3.307,3.307,64.532-127.152.992-1.984,1.948-.956,127.924-63.025-2.536,2.536,64.532-127.152.735-1.47,1.433-.7L632.734,58.639l-1.764,1.8L658.716,5.72l6.468,3.234L638.1,64l-.588,1.139-1.213.625L509.147,130.3l2.132-2.168L448.29,256.092l-.845,1.654-1.691.882L318.565,323.159l2.9-2.9L258.48,448.18l-1.066,2.168-2.242,1.139L127.984,516.019l3.675-3.675L68.671,640.268l-1.323,2.683-2.756,1.4L9.872,672.093Z" transform="translate(-19.705 -16.623)"/><path class="h" d="M1.44,619.522l31.053-15.288-4.042,4.042L92.982,481.124l1.249-2.5,2.425-1.176,127.924-63.025-3.271,3.307,64.532-127.189.992-1.985,1.911-.919,127.924-63.025-2.536,2.536L478.7,99.962l.735-1.47,1.4-.661L608.794,34.805l-1.8,1.764L622.685,5.7l6.688,3.381L614.122,40.1l-.588,1.176-1.213.625L485.17,106.43l2.131-2.168L424.276,232.222l-.809,1.654-1.727.882L294.588,299.289l2.9-2.9L234.467,424.31l-1.066,2.168-2.2,1.139L104.007,492.149l3.675-3.675L44.657,616.4l-1.286,2.683-2.756,1.4L9.745,636.132Z" transform="translate(-19.651 -16.676)"/><path class="h" d="M1.46,583.855l7.056-3.491-4.042,4.079L69.005,457.254l1.249-2.5,2.425-1.176L200.6,390.554l-3.271,3.307,64.532-127.189.992-1.984,1.911-.919,127.961-63.025-2.572,2.536L454.725,76.091l.735-1.47,1.4-.7L584.817,10.935l-1.8,1.764,3.565-7.019,7.056,3.528-3.491,7.056-.588,1.176-1.176.588L461.192,82.6l2.168-2.168L400.336,208.352l-.845,1.654-1.69.882L270.611,275.419l2.9-2.9L210.489,400.44l-1.066,2.168-2.2,1.139L80.03,468.279,83.7,464.6,20.68,592.528l-1.323,2.683-2.719,1.4-7.019,3.528Z" transform="translate(-19.598 -16.73)"/><path class="h" d="M.42,528.3l47.443-93.527,1.286-2.462,2.389-1.213L179.5,368.075l-3.307,3.307,64.532-127.189.992-1.948,1.911-.955,127.961-63.025-2.536,2.536L433.583,53.612l.735-1.433,1.433-.7L529.792,5.14l3.785,7.5-93.527,47.48,2.168-2.168L379.194,185.872l-.809,1.654-1.727.882L249.469,252.94l2.9-2.9L189.384,377.961l-1.066,2.168-2.242,1.139L58.888,445.8l3.675-3.675L16.222,536.2Z" transform="translate(-22.38 -18.174)"/><path class="h" d="M.49,456.891l23.262-45.826,1.286-2.5,2.389-1.176,127.961-63.025-3.307,3.307L216.612,220.52l1.029-1.984,1.911-.955,127.924-63.025-2.536,2.536L409.472,29.939l.735-1.47,1.433-.7L457.723,5.06l4.043,8.085L415.94,36.407l2.168-2.168L355.083,162.163l-.808,1.69-1.727.845L225.358,229.267l2.94-2.94L165.273,354.288l-1.066,2.131-2.242,1.139L34.814,422.127l3.675-3.675L15.778,464.535Z" transform="translate(-22.192 -18.388)"/><path class="h" d="M1.57,381.661l127.005-62.547-3.307,3.271,64.568-127.152.992-1.984,1.911-.919L320.7,129.3l-2.536,2.536L382.181,5.57l8.673,4.336L328.27,136.875l-.845,1.654-1.69.882L198.546,203.942l2.94-2.9L138.461,329l-1.066,2.168-2.242,1.1L8.92,396.361Z" transform="translate(-19.303 -17.024)"/><path class="h" d="M1.59,345.994,104.6,295.244l-3.271,3.307,64.532-127.189.992-1.984,1.911-.919,127.924-63.025-2.536,2.536L346.114,5.55l8.93,4.483L304.33,113.041l-.845,1.654-1.727.882L174.605,180.109l2.9-2.9L114.484,305.129l-1.066,2.168-2.242,1.139L8.793,360.363Z" transform="translate(-19.25 -17.077)"/><path class="h" d="M1.61,310.264l79.011-38.917-3.307,3.307,64.568-127.189.992-1.984,1.911-.919L272.746,81.537l-2.536,2.536L310.083,5.54l9.151,4.594L280.316,89.144l-.808,1.654-1.727.882L150.628,156.212l2.9-2.9L90.543,281.232,89.477,283.4l-2.242,1.139L8.7,324.413Z" transform="translate(-19.196 -17.104)"/><path class="h" d="M1.63,274.624,56.644,247.5l-3.271,3.307L117.9,123.622l.992-1.984,1.911-.956L248.732,57.657,246.2,60.23,273.941,5.51l9.555,4.777L256.375,65.3l-.809,1.69-1.727.882L126.651,132.4l2.94-2.94L66.566,257.389,65.5,259.557,63.258,260.7,8.539,288.442Z" transform="translate(-19.143 -17.184)"/><path class="h" d="M1.65,238.894l31.016-15.288L29.4,226.914,93.927,99.725l.992-1.948,1.948-.955L224.791,33.834l-2.536,2.5L237.947,5.5l9.7,4.851L232.361,41.4l-.808,1.654-1.69.882L102.674,108.471l2.94-2.9L42.589,233.529,41.523,235.7l-2.242,1.139L8.449,252.491Z" transform="translate(-19.089 -17.211)"/><path class="h" d="M1.67,203.227l7.056-3.491-3.307,3.307L69.95,75.891l1.029-1.984,1.911-.955L200.814,9.963,198.278,12.5l3.565-7.019,10.069,5-3.491,7.056-.809,1.69-1.727.845L78.733,84.638l2.9-2.94L18.611,209.659l-1.066,2.168L15.3,212.966l-6.982,3.565Z" transform="translate(-19.036 -17.265)"/><path class="h" d="M.83,147.464l47.443-93.49L49.3,51.989l1.911-.955,94.078-46.3,5.255,10.51L57.056,62.72l2.9-2.94-46.3,94.078Z" transform="translate(-21.283 -19.271)"/><path class="h" d="M.9,76.09,24.2,30.264l.992-1.984,1.911-.919L73.222,4.65l5.512,11.1L32.945,39.011l2.9-2.9L13.174,82.191Z" transform="translate(-21.096 -19.485)"/></g></g></g></g></g></svg>